<?xml version="1.0" encoding="UTF-8" standalone="no"?><!DOCTYPE svg PUBLIC "-//W3C//DTD SVG 1.1//EN" "http://www.w3.org/Graphics/SVG/1.1/DTD/svg11.dtd"><svg width="100%" height="100%" viewBox="0 0 400 927" version="1.1" xmlns="http://www.w3.org/2000/svg" xmlns:xlink="http://www.w3.org/1999/xlink" xml:space="preserve" xmlns:serif="http://www.serif.com/" style="fill-rule:evenodd;clip-rule:evenodd;stroke-linejoin:round;stroke-miterlimit:2;"><g><g><g><path d="M61.592,100.525c19.992,6.461 41.758,5.784 61.67,-0.693c16.283,-5.297 37.407,-14.949 39.569,-34.36c0.83,-7.437 -2.129,-14.133 -9.951,-15.661c-9.34,-1.826 -18.924,4.998 -27.255,8.085c-11.181,4.143 -22.923,6.831 -34.802,7.895c-9.662,0.866 -21.026,-1.191 -29.962,3.337c-6.793,3.443 -12.183,13.106 -9.354,20.701c2.484,6.671 8.866,10.254 15.225,12.234c1.048,0.326 1.496,-1.317 0.453,-1.642c-10.564,-3.288 -18.369,-12.173 -12.084,-23.532c6.123,-11.067 21.059,-8.46 31.617,-9.088c10.347,-0.616 20.631,-2.411 30.572,-5.342c4.608,-1.357 9.141,-2.961 13.578,-4.798c4.988,-2.065 9.866,-4.975 15.198,-6.035c8.512,-1.69 15.512,2.947 15.204,12.046c-0.178,5.293 -2.41,10.437 -5.504,14.662c-7.12,9.721 -19.149,14.983 -30.165,18.911c-20.371,7.263 -42.899,8.316 -63.556,1.639c-1.045,-0.338 -1.492,1.305 -0.453,1.641Z" style="fill:#fff;fill-rule:nonzero;"/><path d="M51.72,85.831c-6.526,-0.108 -15.137,-2.88 -18.569,-8.782c-5.654,-9.72 4.689,-16.433 13.314,-16.59c7.905,-0.144 15.796,1.105 23.739,0.904c7.114,-0.179 14.213,-0.87 21.234,-2.02c14.632,-2.4 28.908,-6.899 42.262,-13.343c7.608,-3.672 18.692,-10.428 27.276,-5.434c6.277,3.652 5.03,13.109 0.024,17.176c-0.85,0.689 0.36,1.888 1.204,1.203c6.093,-4.95 6.755,-16.281 -0.928,-20.116c-5.833,-2.912 -13.426,-1.159 -19.096,1.178c-8.102,3.338 -15.677,7.679 -23.97,10.65c-17.284,6.195 -35.675,9.304 -54.04,9.042c-10.034,-0.144 -30.046,-5.243 -33.71,8.695c-3.207,12.202 11.22,18.973 21.26,19.138c1.095,0.019 1.096,-1.683 0,-1.701Z" style="fill:#fff;fill-rule:nonzero;"/><path d="M47.371,60.044c5.298,-8.367 15.645,-8.753 24.52,-8.992c8.533,-0.229 17.09,-0.697 25.521,-2.109c8.296,-1.389 16.495,-3.725 23.979,-7.626c5.973,-3.114 24.438,-15.814 27.884,-3.155c0.289,1.055 1.93,0.607 1.641,-0.453c-1.941,-7.127 -10.24,-7.151 -16.176,-5.279c-4.824,1.522 -8.944,4.583 -13.356,6.959c-5.877,3.163 -12.225,5.333 -18.725,6.801c-11.974,2.705 -24.006,2.625 -36.172,3.301c-7.898,0.438 -16.137,2.668 -20.584,9.694c-0.587,0.928 0.884,1.782 1.468,0.859Z" style="fill:#fff;fill-rule:nonzero;"/><path d="M45.903,86.288c4.945,6.887 10.072,11.743 18.066,14.98c1.016,0.41 1.458,-1.235 0.454,-1.641c-7.524,-3.046 -12.394,-7.713 -17.052,-14.198c-0.632,-0.882 -2.109,-0.033 -1.468,0.859Z" style="fill:#fff;fill-rule:nonzero;"/><path d="M80.892,76.148c-0.539,5.739 -2.726,10.969 -6.431,15.387c-0.699,0.834 0.499,2.045 1.204,1.204c4.009,-4.782 6.345,-10.376 6.929,-16.591c0.102,-1.09 -1.601,-1.082 -1.702,0Z" style="fill:#fff;fill-rule:nonzero;"/><path d="M121.198,69.581c-0.474,6.953 -2.926,13.353 -7.251,18.824c-0.672,0.85 0.524,2.063 1.203,1.204c4.622,-5.847 7.244,-12.59 7.75,-20.028c0.075,-1.093 -1.628,-1.088 -1.702,0Z" style="fill:#fff;fill-rule:nonzero;"/><path d="M137.713,62.776c-1.736,7.676 -4.58,14.87 -8.576,21.656c-0.556,0.945 0.914,1.801 1.47,0.857c4.067,-6.908 6.979,-14.24 8.748,-22.061c0.24,-1.066 -1.4,-1.522 -1.642,-0.452Z" style="fill:#fff;fill-rule:nonzero;"/><path d="M60.223,65.55c1.803,-2.496 4.965,-3.272 7.805,-3.958c1.063,-0.256 0.612,-1.898 -0.454,-1.64c-3.351,0.808 -6.716,1.824 -8.82,4.74c-0.644,0.888 0.832,1.739 1.469,0.858Z" style="fill:#fff;fill-rule:nonzero;"/><path d="M75.07,63.809c1.305,-1.409 2.84,-2.476 4.606,-3.228c1.006,-0.427 0.139,-1.894 -0.858,-1.47c-1.888,0.803 -3.558,1.991 -4.952,3.496c-0.743,0.802 0.458,2.009 1.204,1.202Z" style="fill:#fff;fill-rule:nonzero;"/><path d="M89.612,62.901c1.912,-1.93 4.137,-3.452 6.654,-4.481c1.001,-0.408 0.563,-2.056 -0.451,-1.642c-2.798,1.145 -5.278,2.769 -7.407,4.919c-0.77,0.779 0.431,1.983 1.204,1.204Z" style="fill:#fff;fill-rule:nonzero;"/><path d="M104.954,60.865c1.559,-2.528 3.702,-4.518 6.322,-5.912c0.967,-0.514 0.108,-1.983 -0.859,-1.469c-2.869,1.526 -5.227,3.756 -6.931,6.521c-0.578,0.935 0.894,1.79 1.468,0.86Z" style="fill:#fff;fill-rule:nonzero;"/><path d="M118.157,57.408c1.28,-2.356 2.852,-4.488 4.731,-6.4c0.768,-0.783 -0.434,-1.987 -1.202,-1.204c-1.978,2.012 -3.651,4.266 -4.998,6.744c-0.523,0.963 0.946,1.823 1.469,0.86Z" style="fill:#fff;fill-rule:nonzero;"/><path d="M132.598,51.52c1.631,-2.939 3.709,-5.515 6.23,-7.736c0.823,-0.726 -0.384,-1.925 -1.204,-1.204c-2.622,2.311 -4.799,5.024 -6.496,8.08c-0.532,0.958 0.937,1.817 1.47,0.86Z" style="fill:#fff;fill-rule:nonzero;"/><path d="M94.513,91.668c5.016,-4.612 7.785,-10.828 7.892,-17.639c0.018,-1.096 -1.684,-1.096 -1.702,0c-0.101,6.394 -2.686,12.108 -7.392,16.435c-0.808,0.743 0.397,1.945 1.202,1.204Z" style="fill:#fff;fill-rule:nonzero;"/></g><g><path d="M135.319,406.354c-19.991,6.462 -41.757,5.784 -61.669,-0.692c-16.284,-5.297 -37.408,-14.949 -39.57,-34.361c-0.83,-7.436 2.129,-14.132 9.951,-15.66c9.34,-1.826 18.924,4.997 27.255,8.085c11.182,4.143 22.923,6.831 34.803,7.895c9.662,0.866 21.026,-1.191 29.962,3.337c6.792,3.442 12.182,13.106 9.353,20.701c-2.483,6.671 -8.865,10.254 -15.225,12.234c-1.048,0.325 -1.496,-1.317 -0.452,-1.642c10.564,-3.288 18.368,-12.173 12.083,-23.532c-6.122,-11.067 -21.059,-8.46 -31.617,-9.088c-10.347,-0.617 -20.631,-2.411 -30.572,-5.342c-4.608,-1.357 -9.14,-2.961 -13.578,-4.798c-4.987,-2.065 -9.866,-4.975 -15.197,-6.035c-8.513,-1.691 -15.512,2.946 -15.205,12.046c0.178,5.293 2.41,10.437 5.504,14.662c7.12,9.721 19.149,14.982 30.165,18.91c20.372,7.264 42.899,8.317 63.556,1.64c1.045,-0.338 1.492,1.304 0.453,1.64Z" style="fill:#fff;fill-rule:nonzero;"/><path d="M145.191,391.66c6.526,-0.108 15.138,-2.879 18.57,-8.781c5.653,-9.72 -4.69,-16.434 -13.315,-16.59c-7.904,-0.144 -15.795,1.105 -23.739,0.904c-7.113,-0.179 -14.213,-0.87 -21.233,-2.021c-14.633,-2.399 -28.908,-6.898 -42.263,-13.343c-7.608,-3.671 -18.692,-10.428 -27.276,-5.433c-6.277,3.652 -5.03,13.109 -0.024,17.175c0.85,0.69 -0.36,1.888 -1.204,1.204c-6.092,-4.95 -6.755,-16.281 0.928,-20.116c5.833,-2.913 13.426,-1.16 19.097,1.178c8.102,3.338 15.676,7.678 23.969,10.65c17.284,6.195 35.676,9.304 54.04,9.041c10.034,-0.144 30.046,-5.242 33.71,8.696c3.207,12.201 -11.22,18.972 -21.26,19.138c-1.095,0.018 -1.096,-1.684 0,-1.702Z" style="fill:#fff;fill-rule:nonzero;"/><path d="M149.54,365.873c-5.298,-8.366 -15.645,-8.752 -24.52,-8.991c-8.533,-0.229 -17.09,-0.697 -25.521,-2.109c-8.296,-1.389 -16.495,-3.725 -23.978,-7.626c-5.974,-3.114 -24.438,-15.814 -27.885,-3.155c-0.288,1.055 -1.93,0.607 -1.641,-0.453c1.941,-7.127 10.24,-7.151 16.176,-5.279c4.824,1.521 8.944,4.582 13.356,6.958c5.877,3.163 12.226,5.334 18.726,6.802c11.973,2.705 24.005,2.624 36.171,3.301c7.898,0.438 16.138,2.668 20.584,9.694c0.588,0.928 -0.884,1.782 -1.468,0.858Z" style="fill:#fff;fill-rule:nonzero;"/><path d="M151.008,392.118c-4.945,6.886 -10.072,11.742 -18.066,14.979c-1.016,0.411 -1.458,-1.234 -0.454,-1.64c7.525,-3.047 12.394,-7.713 17.052,-14.198c0.632,-0.882 2.109,-0.033 1.468,0.859Z" style="fill:#fff;fill-rule:nonzero;"/><path d="M116.02,381.978c0.539,5.738 2.725,10.969 6.43,15.387c0.699,0.834 -0.499,2.044 -1.203,1.204c-4.01,-4.783 -6.346,-10.376 -6.929,-16.591c-0.102,-1.091 1.601,-1.083 1.702,0Z" style="fill:#fff;fill-rule:nonzero;"/><path d="M75.713,375.411c0.475,6.952 2.927,13.353 7.252,18.824c0.671,0.849 -0.525,2.062 -1.204,1.203c-4.621,-5.846 -7.243,-12.589 -7.749,-20.027c-0.075,-1.093 1.628,-1.088 1.701,0Z" style="fill:#fff;fill-rule:nonzero;"/><path d="M59.198,368.605c1.736,7.677 4.581,14.87 8.577,21.656c0.556,0.945 -0.915,1.802 -1.471,0.858c-4.067,-6.908 -6.979,-14.24 -8.747,-22.061c-0.241,-1.066 1.4,-1.522 1.641,-0.453Z" style="fill:#fff;fill-rule:nonzero;"/><path d="M136.688,371.38c-1.803,-2.497 -4.965,-3.273 -7.804,-3.958c-1.064,-0.256 -0.613,-1.898 0.453,-1.641c3.351,0.808 6.716,1.825 8.821,4.741c0.643,0.888 -0.833,1.739 -1.47,0.858Z" style="fill:#fff;fill-rule:nonzero;"/><path d="M121.841,369.639c-1.305,-1.409 -2.84,-2.477 -4.606,-3.228c-1.005,-0.428 -0.139,-1.895 0.859,-1.47c1.888,0.803 3.558,1.991 4.951,3.495c0.743,0.803 -0.457,2.01 -1.204,1.203Z" style="fill:#fff;fill-rule:nonzero;"/><path d="M107.299,368.73c-1.912,-1.93 -4.137,-3.451 -6.654,-4.48c-1.001,-0.409 -0.563,-2.056 0.451,-1.642c2.798,1.145 5.278,2.768 7.407,4.918c0.77,0.78 -0.431,1.984 -1.204,1.204Z" style="fill:#fff;fill-rule:nonzero;"/><path d="M91.957,366.695c-1.559,-2.528 -3.702,-4.518 -6.322,-5.913c-0.966,-0.513 -0.107,-1.983 0.859,-1.469c2.87,1.526 5.227,3.757 6.931,6.522c0.578,0.935 -0.894,1.79 -1.468,0.86Z" style="fill:#fff;fill-rule:nonzero;"/><path d="M78.754,363.238c-1.28,-2.357 -2.852,-4.489 -4.731,-6.4c-0.768,-0.783 0.434,-1.987 1.203,-1.204c1.977,2.011 3.651,4.266 4.997,6.744c0.523,0.963 -0.946,1.823 -1.469,0.86Z" style="fill:#fff;fill-rule:nonzero;"/><path d="M64.313,357.349c-1.63,-2.938 -3.709,-5.514 -6.23,-7.735c-0.822,-0.726 0.385,-1.926 1.204,-1.204c2.622,2.311 4.799,5.024 6.496,8.079c0.533,0.959 -0.937,1.818 -1.47,0.86Z" style="fill:#fff;fill-rule:nonzero;"/><path d="M102.398,397.498c-5.016,-4.612 -7.785,-10.829 -7.891,-17.64c-0.018,-1.096 1.683,-1.096 1.702,0c0.101,6.395 2.685,12.109 7.391,16.436c0.808,0.743 -0.397,1.945 -1.202,1.204Z" style="fill:#fff;fill-rule:nonzero;"/></g><g><path d="M41.582,187.878c4.677,-9.193 15.633,-15.654 24.741,-19.853c9.822,-4.53 20.691,-6.92 31.507,-6.861c11.781,0.064 22.079,3.882 32.648,8.758c9.978,4.603 21.921,11.883 21.073,24.535c-1.634,24.378 -40.125,25.49 -57.64,25.049c-17.315,-0.438 -59.254,-5.273 -52.614,-31.53c0.344,-1.353 -1.748,-1.93 -2.091,-0.577c-4.844,19.154 15.334,27.917 30.639,31.464c20.327,4.709 45.745,4.988 65.394,-2.816c14.512,-5.765 24.676,-21.41 13.946,-35.536c-5.726,-7.538 -14.88,-11.344 -23.3,-14.997c-9.842,-4.272 -19.632,-6.785 -30.418,-6.493c-10.431,0.282 -20.765,2.776 -30.24,7.132c-9.368,4.306 -20.693,11.145 -25.518,20.63c-0.632,1.241 1.238,2.34 1.873,1.095Z" style="fill:#fff;fill-rule:nonzero;"/><path d="M38.858,195.553c-5.462,1.008 -6.157,6.647 -1.339,9.16l0,-1.873c-6.725,3.962 -11.906,12.628 -2.009,16.533c0.811,0.32 2.237,0.351 2.943,0.79c1.427,0.889 0.88,1.25 1.774,2.76c1.132,1.913 -0.127,2.089 2.107,3.629c2.87,1.978 5.861,0.318 8.124,-1.585c-0.604,-0.351 -1.209,-0.702 -1.811,-1.054c-0.696,3.275 0.01,6.672 3.11,8.469c2.666,1.546 4.42,-0.374 6.645,0.289c1.667,0.495 2.571,2.622 4.298,3.566c3.731,2.037 6.217,0.411 8.762,-2.257c3.201,-3.353 6.249,-5.155 3.991,-10.152c-0.495,0.496 -0.991,0.99 -1.485,1.484c3.847,2.556 7.652,2.239 11.2,-0.65c-0.604,-0.351 -1.209,-0.702 -1.813,-1.054c-1.025,3.647 0.363,7.184 4.291,8.348c4.934,1.463 9.134,-2.036 12.334,-5.271c-0.604,-0.159 -1.207,-0.318 -1.812,-0.478c1.095,3.251 3.403,5.611 6.936,6.123c1.323,0.192 3.336,-0.742 4.353,-0.092c1.301,0.834 2.14,3.614 3.609,4.722c2.844,2.138 6.603,2.678 9.852,1.077c1.89,-0.931 2.558,-3.396 3.991,-4.199c1.865,-1.047 4.571,-0.292 6.764,-1.41c2.49,-1.268 4.049,-4.015 5.752,-5.579c0.966,-0.888 1.967,-0.852 2.675,-2.217c0.967,-1.861 -0.586,-3.097 -0.205,-4.835c0.681,-3.126 2.397,-0.177 4.291,0.781c1.13,0.569 2.218,0.793 3.499,0.412c3.494,-1.04 3.53,-4.516 2.249,-7.218c-0.408,0.53 -0.816,1.061 -1.226,1.591c5.266,1.971 9.044,-0.485 10.815,-5.5c0.916,-2.594 0.49,-2.318 2.375,-4.352c0.491,-0.531 1.139,-0.936 1.584,-1.526c1.215,-1.605 1.773,-3.565 1.196,-5.549c-0.641,-2.211 -1.67,-2.493 -1.88,-4.461c-0.24,-2.261 1.255,-2.613 -0.663,-4.478c-4.6,-4.472 -9.458,3.398 -11.786,5.95c-0.939,1.028 0.59,2.567 1.535,1.533c0.522,-0.496 1,-1.031 1.432,-1.602c1.152,-2.548 3.203,-2.664 6.154,-0.349c-0.311,0.436 -0.117,1.27 0.387,1.484c9.956,4.213 -1.242,7.472 -2.264,9.289c-0.097,0.167 -0.148,0.351 -0.149,0.546c0.305,3.963 -2.416,6.271 -8.158,6.925c-0.972,-0.363 -1.589,0.825 -1.226,1.593c-2.302,3.054 -3.914,3.538 -4.837,1.455c-0.195,-0.373 -0.426,-0.723 -0.688,-1.049c-0.479,-0.192 -0.782,-0.802 -1.261,-1.002c-1.081,-0.452 -1.858,-0.577 -2.874,-0.055c-0.898,0.462 -1.156,0.956 -1.452,1.957c-0.399,1.346 2.821,9.408 -0.834,8.273c-0.576,-0.177 -1.159,0.213 -1.332,0.758c-2.908,9.095 -5.963,4.561 -10.804,6.223c-0.327,0.113 -1.086,1.404 -0.941,1.318c-2.059,1.365 -4.12,2.732 -6.179,4.097c-4.22,-0.623 -6.854,-2.923 -7.903,-6.9c-0.235,-0.681 -0.943,-0.984 -1.592,-0.647c-3.035,-1.222 -6.069,-2.443 -9.102,-3.663c-0.256,-0.758 -1.214,-1.084 -1.814,-0.479c-1.576,1.592 -16.224,10.505 -13,-0.968c0.314,-1.122 -1.019,-1.701 -1.812,-1.056c-2.858,0.104 -5.714,0.208 -8.573,0.311c-0.992,-0.659 -1.888,0.589 -1.482,1.485c2.635,5.827 -9.946,12.256 -13.119,5.147c-0.23,-0.513 -1.035,-0.686 -1.483,-0.387c-2.746,-1.734 -5.493,-3.464 -8.239,-5.195c0.231,-1.096 -0.983,-1.754 -1.813,-1.056c-3.993,0.686 -6.123,-0.13 -6.39,-2.448c-0.059,-0.496 -0.182,-0.979 -0.366,-1.45c-0.172,-0.082 -0.243,-0.528 -0.499,-0.648c-1.232,-0.58 -2.306,-0.582 -3.584,-0.99c-1.118,-0.417 -2.233,-0.833 -3.349,-1.25c-1.697,-6.07 -0.405,-10.047 3.875,-11.934c0.677,-0.398 0.735,-1.49 0,-1.873c0.273,-1.732 0.547,-3.464 0.82,-5.195c1.372,-0.253 0.79,-2.345 -0.575,-2.092Z" style="fill:#fff;fill-rule:nonzero;"/><path d="M71.312,231.824c12.719,7.222 27.459,7.661 40.613,1.284c1.255,-0.609 0.157,-2.48 -1.096,-1.874c-12.442,6.034 -26.4,5.542 -38.423,-1.284c-1.214,-0.69 -2.309,1.183 -1.094,1.874Z" style="fill:#fff;fill-rule:nonzero;"/><path d="M69.211,235.432c14.293,6.915 30.377,6.603 44.374,-0.913c1.23,-0.658 0.136,-2.532 -1.095,-1.871c-13.269,7.123 -28.622,7.473 -42.185,0.91c-1.251,-0.606 -2.352,1.265 -1.094,1.874Z" style="fill:#fff;fill-rule:nonzero;"/><path d="M125.518,233.863c5.354,5.322 12.13,3.314 18.251,0.273c6.862,-3.414 8.944,-8.991 8.555,-16.378c-0.072,-1.39 -2.242,-1.398 -2.169,0c0.305,5.801 -0.752,10.625 -6.126,13.785c-5.124,3.012 -12.176,5.562 -16.978,0.787c-0.991,-0.985 -2.526,0.548 -1.533,1.533Z" style="fill:#fff;fill-rule:nonzero;"/><path d="M124.033,236.165c4.407,8.139 16.197,3.494 22.641,0.788c8.846,-3.715 8.39,-12.85 6.917,-21.105c-0.244,-1.371 -2.337,-0.79 -2.092,0.577c1.369,7.663 1.788,15.704 -6.91,19.014c-5.161,1.965 -15.124,6.206 -18.683,-0.367c-0.666,-1.228 -2.538,-0.135 -1.873,1.093Z" style="fill:#fff;fill-rule:nonzero;"/><path d="M154.697,213.336c-1.566,1.999 -1.904,3.521 -1.089,6.007c1.461,4.447 4.488,5.853 3.389,11.491c-0.75,3.85 -3.324,7.03 -6.111,9.622c-11.092,10.311 -28.558,12.286 -42.935,13.841c-14.977,1.618 -28.515,1.431 -43.046,-2.972c-6.832,-2.07 -13.993,-4.862 -19.299,-9.819c-6.701,-6.258 -5.729,-14.081 -5.806,-22.396c-0.013,-1.395 -2.182,-1.398 -2.169,0c0.058,6.291 -0.941,13.804 2.522,19.404c3.381,5.469 9.718,9.204 15.441,11.733c15.213,6.722 30.738,8.165 47.101,6.729c14.966,-1.313 31.934,-2.837 44.83,-11.242c4.582,-2.986 9.146,-7.064 11.004,-12.374c0.718,-2.058 1.067,-4.382 0.789,-6.561c-0.397,-3.134 -5.22,-9.207 -3.087,-11.929c0.852,-1.087 -0.674,-2.633 -1.534,-1.534Z" style="fill:#fff;fill-rule:nonzero;"/><path d="M38.869,235.18c-4.09,1.45 -3.434,6.223 -4.384,9.932c-1.115,4.368 -1.047,3.05 1.223,7.967c0.914,1.978 0.919,3.556 3.638,3.384c2.496,-0.158 2.827,-1.941 5.32,0.652c1.242,1.294 1.262,2.795 2.97,3.878c3.146,1.991 7.224,-1.757 9.303,0.286c1.864,1.832 -0.821,4.639 3.391,4.964c2.173,0.168 3.158,-1.783 5.212,-1.972c3.287,-0.301 0.833,0.925 3.405,2.779c3.26,2.347 5.602,-1.518 8.516,-0.665c2.669,0.779 3.087,3.83 6.467,3.674c3.066,-0.143 0.856,-1.16 3.768,-1.981c9.713,-2.733 2.58,-0.065 7.301,1.304c1.767,0.513 2.375,0.453 4.125,0.32c0.694,-0.054 1.251,-0.971 1.867,-1.073c2.556,-0.421 3.742,0.616 5.759,1.415c3.762,1.491 4.67,2.113 8.263,0.113c1.903,-1.058 1.211,-2.876 4.74,-2.373c1.205,0.172 3.066,1.764 4.444,2.007c3.59,0.635 6.126,-0.726 8.249,-3.523c1.561,-2.057 1.404,-2.904 3.701,-5.566c0.577,-0.666 1.555,-0.658 1.961,-1.515c1.645,-3.478 -1.101,-3.029 5.353,-3.066c1.516,-0.008 2.433,0.473 3.956,-0.203c3.886,-1.728 1.372,-3.391 8.094,-4.068c1.946,-0.197 2.624,0.855 4.691,0.174c4.174,-1.373 4.63,-4.474 4.123,-8.112c-0.026,-0.188 -1.519,-2.776 -1.126,-1.33c-1.736,-6.383 0.933,-2.61 0.759,-5.926c-0.081,-1.557 0.354,-2.332 -0.684,-3.729c-1.931,-2.6 -5.007,-1.707 -6.846,0.333c-0.93,1.035 0.598,2.575 1.535,1.534c0.521,0.439 1.043,0.875 1.563,1.311c1.653,0.502 2.004,1.19 1.056,2.067c0.003,0.092 -0.638,0.704 -0.613,1.016c0.081,1.076 -0.441,1.458 -0.245,2.334c0.18,0.808 1.256,1.439 1.409,2.083c1.69,7.058 -4.675,5.483 -8.116,5.476c-2.045,-0.004 -2.497,0.678 -4.091,1.682c-2.764,1.744 2.991,0.971 -3.587,2.01c-11.79,1.858 -1.254,0.404 -3.144,0.344c-1.667,-0.052 -2.225,-1.414 -4.016,-0.388c-1.209,0.694 -0.937,1.867 -1.519,2.826c-0.945,1.551 -3.879,4.758 -5.48,6.022c-0.206,0.165 -0.073,0.88 -0.254,1.018c-0.247,0.191 -11.208,2.313 -11.361,2.306c-0.549,-0.027 -1.037,-1.097 -1.702,-0.941c-2.098,0.487 -1.859,1.595 -3.447,2.305c-1.971,0.877 -6.561,1.038 -8.282,0.428c-0.2,-0.071 -0.591,-0.692 -0.921,-0.794c-0.787,-0.246 -1.313,-0.784 -2.188,-1.007c-0.697,-0.176 -0.87,0.443 -1.518,0.466c-2.302,0.081 -5.055,0.552 -7.507,-0.269c-1.893,-0.635 -1.29,-2.235 -4.15,-1.525c-1.38,0.344 -2.64,2.803 -3.684,2.981c-2.753,0.467 -4.565,-2.464 -6.407,-3.159c-1.876,-0.706 -0.927,-0.791 -3.617,-0.589c-1.654,0.125 6.999,0.036 -3.507,0.23c-1.096,0.02 -2.191,0.041 -3.287,0.061c-0.163,-0.421 -0.33,-0.842 -0.495,-1.262c-0.208,-0.051 -0.354,-0.687 -0.756,-0.757c-2.225,-0.384 -2.487,0.684 -4.478,1.066c-5.609,1.074 -3.097,-2.713 -5.912,-4.468c-0.706,-0.439 -1.526,-0.072 -2.295,-0.28c-0.185,-0.051 -0.387,0.154 -0.546,0.147c-0.547,0.349 -1.094,0.696 -1.64,1.044c-2.325,-1.212 -4.649,-2.423 -6.974,-3.634c-1.439,-1.143 -0.833,-1.782 -2.747,-2.621c-0.881,-0.386 -1.899,1.09 -2.619,1.031c-2.589,-0.211 -3.268,-2.233 -4.006,-4.053c-0.949,-2.328 -0.404,-1.77 0.539,-4.472c0.559,-1.611 0.889,-7.153 2.026,-7.557c1.307,-0.462 0.744,-2.561 -0.576,-2.092Z" style="fill:#fff;fill-rule:nonzero;"/><path d="M40.364,253.945c-0.552,12.561 7.495,16.845 18.223,21.603c12.044,5.341 25.271,8.017 38.445,7.682c13.71,-0.349 28.353,-3.828 40.962,-9.162c9.961,-4.212 16.015,-12.86 16.611,-23.646c0.076,-1.396 -2.093,-1.391 -2.169,0c-0.754,13.616 -10.191,20.316 -22.207,24.063c-10.811,3.369 -21.813,6.272 -33.197,6.576c-10.447,0.277 -20.946,-1.388 -30.816,-4.817c-4.899,-1.701 -9.627,-3.847 -14.134,-6.408c-6.754,-3.837 -9.909,-7.682 -9.549,-15.891c0.061,-1.395 -2.108,-1.392 -2.169,0Z" style="fill:#fff;fill-rule:nonzero;"/><path d="M59.185,189.65l0,-0.419c0,-1.395 -2.169,-1.398 -2.169,0l0,0.419c0,1.396 2.169,1.399 2.169,0Z" style="fill:#fff;fill-rule:nonzero;"/><path d="M71.478,179.027l0.419,0c1.395,0 1.398,-2.169 0,-2.169l-0.419,0c-1.394,0 -1.395,2.169 0,2.169Z" style="fill:#fff;fill-rule:nonzero;"/><path d="M105.765,181.536c1.396,0 1.398,-2.169 0,-2.169c-1.394,0 -1.397,2.169 0,2.169Z" style="fill:#fff;fill-rule:nonzero;"/><path d="M102.421,202.441c1.397,0 1.398,-2.169 0,-2.169c-1.396,0 -1.398,2.169 0,2.169Z" style="fill:#fff;fill-rule:nonzero;"/><path d="M71.478,203.696c1.397,0 1.398,-2.169 0,-2.169c-1.394,0 -1.395,2.169 0,2.169Z" style="fill:#fff;fill-rule:nonzero;"/><path d="M89.947,186.792c-0.141,0.14 -0.279,0.279 -0.418,0.419c-0.989,0.988 0.545,2.522 1.532,1.533c0.141,-0.139 0.28,-0.279 0.418,-0.418c0.989,-0.988 -0.543,-2.522 -1.532,-1.534Z" style="fill:#fff;fill-rule:nonzero;"/><path d="M94.059,171.919c1.395,0 1.397,-2.169 0,-2.169c-1.397,0 -1.398,2.169 0,2.169Z" style="fill:#fff;fill-rule:nonzero;"/><path d="M137.126,184.88c1.395,0 1.398,-2.169 0,-2.169c-1.397,0 -1.398,2.169 0,2.169Z" style="fill:#fff;fill-rule:nonzero;"/><path d="M131.52,200.939l0,-0.418c0,-1.395 -2.169,-1.398 -2.169,0l0,0.418c0,1.397 2.169,1.398 2.169,0Z" style="fill:#fff;fill-rule:nonzero;"/><path d="M122.074,189.062c1.395,0 1.397,-2.169 0,-2.169c-1.397,0 -1.398,2.169 0,2.169Z" style="fill:#fff;fill-rule:nonzero;"/><path d="M112.038,211.64c1.395,0 1.398,-2.169 0,-2.169c-1.396,0 -1.399,2.169 0,2.169Z" style="fill:#fff;fill-rule:nonzero;"/><path d="M88.135,208.116c-0.14,-0.138 -0.278,-0.279 -0.418,-0.417c-0.989,-0.988 -2.522,0.545 -1.534,1.534c0.139,0.139 0.279,0.279 0.418,0.418c0.989,0.987 2.523,-0.546 1.534,-1.535Z" style="fill:#fff;fill-rule:nonzero;"/><path d="M115.384,179.027c1.395,0 1.398,-2.169 0,-2.169c-1.397,0 -1.399,2.169 0,2.169Z" style="fill:#fff;fill-rule:nonzero;"/><path d="M70.224,189.48c1.397,0 1.398,-2.169 0,-2.169c-1.395,0 -1.398,2.169 0,2.169Z" style="fill:#fff;fill-rule:nonzero;"/><path d="M59.354,201.605c1.395,0 1.398,-2.168 0,-2.168c-1.396,0 -1.399,2.168 0,2.168Z" style="fill:#fff;fill-rule:nonzero;"/></g><g><path d="M61.592,712.184c19.992,6.461 41.758,5.784 61.67,-0.692c16.283,-5.297 37.407,-14.949 39.569,-34.361c0.83,-7.436 -2.129,-14.132 -9.951,-15.661c-9.34,-1.825 -18.924,4.998 -27.255,8.085c-11.181,4.144 -22.923,6.832 -34.802,7.896c-9.662,0.866 -21.026,-1.191 -29.962,3.337c-6.793,3.442 -12.183,13.105 -9.354,20.7c2.484,6.672 8.866,10.255 15.225,12.234c1.048,0.326 1.496,-1.317 0.453,-1.641c-10.564,-3.288 -18.369,-12.173 -12.084,-23.533c6.123,-11.066 21.059,-8.459 31.617,-9.088c10.347,-0.616 20.631,-2.411 30.572,-5.341c4.608,-1.357 9.141,-2.962 13.578,-4.799c4.988,-2.064 9.866,-4.975 15.198,-6.034c8.512,-1.691 15.512,2.946 15.204,12.045c-0.178,5.293 -2.41,10.438 -5.504,14.663c-7.12,9.721 -19.149,14.982 -30.165,18.91c-20.371,7.264 -42.899,8.316 -63.556,1.639c-1.045,-0.338 -1.492,1.305 -0.453,1.641Z" style="fill:#fff;fill-rule:nonzero;"/><path d="M51.72,697.49c-6.526,-0.108 -15.137,-2.88 -18.569,-8.782c-5.654,-9.72 4.689,-16.433 13.314,-16.59c7.905,-0.144 15.796,1.105 23.739,0.905c7.114,-0.18 14.213,-0.871 21.234,-2.021c14.632,-2.4 28.908,-6.898 42.262,-13.343c7.608,-3.671 18.692,-10.428 27.276,-5.433c6.277,3.652 5.03,13.109 0.024,17.175c-0.85,0.69 0.36,1.888 1.204,1.204c6.093,-4.95 6.755,-16.282 -0.928,-20.116c-5.833,-2.913 -13.426,-1.16 -19.096,1.177c-8.102,3.338 -15.677,7.679 -23.97,10.651c-17.284,6.195 -35.675,9.303 -54.04,9.041c-10.034,-0.144 -30.046,-5.243 -33.71,8.696c-3.207,12.201 11.22,18.972 21.26,19.138c1.095,0.018 1.096,-1.684 0,-1.702Z" style="fill:#fff;fill-rule:nonzero;"/><path d="M47.371,671.703c5.298,-8.366 15.645,-8.752 24.52,-8.992c8.533,-0.229 17.09,-0.696 25.521,-2.109c8.296,-1.388 16.495,-3.725 23.979,-7.625c5.973,-3.115 24.438,-15.814 27.884,-3.156c0.289,1.056 1.93,0.607 1.641,-0.452c-1.941,-7.128 -10.24,-7.152 -16.176,-5.279c-4.824,1.521 -8.944,4.582 -13.356,6.958c-5.877,3.163 -12.225,5.334 -18.725,6.802c-11.974,2.705 -24.006,2.624 -36.172,3.3c-7.898,0.438 -16.137,2.669 -20.584,9.694c-0.587,0.928 0.884,1.783 1.468,0.859Z" style="fill:#fff;fill-rule:nonzero;"/><path d="M45.903,697.947c4.945,6.887 10.072,11.743 18.066,14.98c1.016,0.411 1.458,-1.234 0.454,-1.64c-7.524,-3.047 -12.394,-7.713 -17.052,-14.199c-0.632,-0.881 -2.109,-0.033 -1.468,0.859Z" style="fill:#fff;fill-rule:nonzero;"/><path d="M80.892,687.807c-0.539,5.739 -2.726,10.97 -6.431,15.388c-0.699,0.834 0.499,2.044 1.204,1.203c4.009,-4.782 6.345,-10.375 6.929,-16.591c0.102,-1.09 -1.601,-1.082 -1.702,0Z" style="fill:#fff;fill-rule:nonzero;"/><path d="M121.198,681.24c-0.474,6.953 -2.926,13.353 -7.251,18.824c-0.672,0.85 0.524,2.063 1.203,1.204c4.622,-5.846 7.244,-12.589 7.75,-20.028c0.075,-1.092 -1.628,-1.088 -1.702,0Z" style="fill:#fff;fill-rule:nonzero;"/><path d="M137.713,674.435c-1.736,7.677 -4.58,14.87 -8.576,21.656c-0.556,0.945 0.914,1.802 1.47,0.858c4.067,-6.909 6.979,-14.24 8.748,-22.061c0.24,-1.067 -1.4,-1.523 -1.642,-0.453Z" style="fill:#fff;fill-rule:nonzero;"/><path d="M60.223,677.209c1.803,-2.496 4.965,-3.272 7.805,-3.957c1.063,-0.257 0.612,-1.898 -0.454,-1.641c-3.351,0.808 -6.716,1.825 -8.82,4.74c-0.644,0.889 0.832,1.74 1.469,0.858Z" style="fill:#fff;fill-rule:nonzero;"/><path d="M75.07,675.469c1.305,-1.409 2.84,-2.477 4.606,-3.228c1.006,-0.428 0.139,-1.895 -0.858,-1.471c-1.888,0.804 -3.558,1.992 -4.952,3.496c-0.743,0.802 0.458,2.009 1.204,1.203Z" style="fill:#fff;fill-rule:nonzero;"/><path d="M89.612,674.56c1.912,-1.93 4.137,-3.451 6.654,-4.481c1.001,-0.408 0.563,-2.055 -0.451,-1.641c-2.798,1.145 -5.278,2.768 -7.407,4.918c-0.77,0.78 0.431,1.983 1.204,1.204Z" style="fill:#fff;fill-rule:nonzero;"/><path d="M104.954,672.525c1.559,-2.528 3.702,-4.518 6.322,-5.913c0.967,-0.514 0.108,-1.983 -0.859,-1.469c-2.869,1.526 -5.227,3.757 -6.931,6.522c-0.578,0.934 0.894,1.79 1.468,0.86Z" style="fill:#fff;fill-rule:nonzero;"/><path d="M118.157,669.067c1.28,-2.356 2.852,-4.488 4.731,-6.4c0.768,-0.783 -0.434,-1.986 -1.202,-1.204c-1.978,2.012 -3.651,4.267 -4.998,6.744c-0.523,0.964 0.946,1.824 1.469,0.86Z" style="fill:#fff;fill-rule:nonzero;"/><path d="M132.598,663.179c1.631,-2.939 3.709,-5.514 6.23,-7.736c0.823,-0.726 -0.384,-1.925 -1.204,-1.203c-2.622,2.311 -4.799,5.023 -6.496,8.079c-0.532,0.959 0.937,1.818 1.47,0.86Z" style="fill:#fff;fill-rule:nonzero;"/><path d="M94.513,703.327c5.016,-4.612 7.785,-10.828 7.892,-17.639c0.018,-1.096 -1.684,-1.096 -1.702,0c-0.101,6.395 -2.686,12.108 -7.392,16.436c-0.808,0.743 0.397,1.944 1.202,1.203Z" style="fill:#fff;fill-rule:nonzero;"/></g><g><path d="M41.582,799.537c4.677,-9.193 15.633,-15.654 24.741,-19.852c9.822,-4.531 20.691,-6.921 31.507,-6.861c11.781,0.063 22.079,3.882 32.648,8.758c9.978,4.602 21.921,11.882 21.073,24.534c-1.634,24.379 -40.125,25.49 -57.64,25.049c-17.315,-0.438 -59.254,-5.273 -52.614,-31.53c0.344,-1.353 -1.748,-1.93 -2.091,-0.576c-4.844,19.154 15.334,27.916 30.639,31.463c20.327,4.709 45.745,4.989 65.394,-2.815c14.512,-5.765 24.676,-21.41 13.946,-35.537c-5.726,-7.538 -14.88,-11.343 -23.3,-14.997c-9.842,-4.271 -19.632,-6.784 -30.418,-6.492c-10.431,0.282 -20.765,2.776 -30.24,7.131c-9.368,4.306 -20.693,11.145 -25.518,20.631c-0.632,1.24 1.238,2.339 1.873,1.094Z" style="fill:#fff;fill-rule:nonzero;"/><path d="M38.858,807.212c-5.462,1.008 -6.157,6.647 -1.339,9.16l0,-1.872c-6.725,3.962 -11.906,12.627 -2.009,16.532c0.811,0.32 2.237,0.352 2.943,0.79c1.427,0.889 0.88,1.251 1.774,2.76c1.132,1.913 -0.127,2.09 2.107,3.629c2.87,1.979 5.861,0.319 8.124,-1.584c-0.604,-0.352 -1.209,-0.703 -1.811,-1.054c-0.696,3.275 0.01,6.671 3.11,8.469c2.666,1.545 4.42,-0.375 6.645,0.289c1.667,0.494 2.571,2.621 4.298,3.565c3.731,2.038 6.217,0.411 8.762,-2.257c3.201,-3.353 6.249,-5.154 3.991,-10.152c-0.495,0.496 -0.991,0.991 -1.485,1.484c3.847,2.556 7.652,2.24 11.2,-0.649c-0.604,-0.352 -1.209,-0.703 -1.813,-1.054c-1.025,3.646 0.363,7.183 4.291,8.347c4.934,1.463 9.134,-2.036 12.334,-5.27c-0.604,-0.16 -1.207,-0.319 -1.812,-0.479c1.095,3.252 3.403,5.612 6.936,6.123c1.323,0.193 3.336,-0.741 4.353,-0.092c1.301,0.834 2.14,3.615 3.609,4.722c2.844,2.139 6.603,2.678 9.852,1.078c1.89,-0.932 2.558,-3.397 3.991,-4.199c1.865,-1.047 4.571,-0.293 6.764,-1.41c2.49,-1.268 4.049,-4.016 5.752,-5.58c0.966,-0.888 1.967,-0.852 2.675,-2.217c0.967,-1.861 -0.586,-3.097 -0.205,-4.835c0.681,-3.126 2.397,-0.176 4.291,0.781c1.13,0.57 2.218,0.794 3.499,0.412c3.494,-1.04 3.53,-4.516 2.249,-7.218c-0.408,0.531 -0.816,1.061 -1.226,1.592c5.266,1.971 9.044,-0.486 10.815,-5.5c0.916,-2.594 0.49,-2.318 2.375,-4.353c0.491,-0.53 1.139,-0.935 1.584,-1.525c1.215,-1.605 1.773,-3.566 1.196,-5.55c-0.641,-2.21 -1.67,-2.492 -1.88,-4.46c-0.24,-2.262 1.255,-2.613 -0.663,-4.478c-4.6,-4.473 -9.458,3.398 -11.786,5.95c-0.939,1.028 0.59,2.566 1.535,1.532c0.522,-0.496 1,-1.031 1.432,-1.602c1.152,-2.548 3.203,-2.663 6.154,-0.348c-0.311,0.435 -0.117,1.269 0.387,1.483c9.956,4.214 -1.242,7.473 -2.264,9.289c-0.097,0.168 -0.148,0.351 -0.149,0.546c0.305,3.964 -2.416,6.272 -8.158,6.925c-0.972,-0.363 -1.589,0.826 -1.226,1.593c-2.302,3.054 -3.914,3.539 -4.837,1.455c-0.195,-0.373 -0.426,-0.723 -0.688,-1.048c-0.479,-0.193 -0.782,-0.803 -1.261,-1.002c-1.081,-0.453 -1.858,-0.577 -2.874,-0.055c-0.898,0.461 -1.156,0.956 -1.452,1.956c-0.399,1.346 2.821,9.409 -0.834,8.274c-0.576,-0.178 -1.159,0.212 -1.332,0.757c-2.908,9.095 -5.963,4.561 -10.804,6.224c-0.327,0.113 -1.086,1.404 -0.941,1.317c-2.059,1.365 -4.12,2.733 -6.179,4.098c-4.22,-0.623 -6.854,-2.924 -7.903,-6.9c-0.235,-0.681 -0.943,-0.985 -1.592,-0.648c-3.035,-1.222 -6.069,-2.442 -9.102,-3.663c-0.256,-0.757 -1.214,-1.084 -1.814,-0.478c-1.576,1.592 -16.224,10.505 -13,-0.969c0.314,-1.122 -1.019,-1.7 -1.812,-1.055c-2.858,0.104 -5.714,0.208 -8.573,0.31c-0.992,-0.659 -1.888,0.589 -1.482,1.485c2.635,5.827 -9.946,12.256 -13.119,5.148c-0.23,-0.513 -1.035,-0.687 -1.483,-0.388c-2.746,-1.733 -5.493,-3.464 -8.239,-5.195c0.231,-1.096 -0.983,-1.754 -1.813,-1.055c-3.993,0.685 -6.123,-0.131 -6.39,-2.448c-0.059,-0.496 -0.182,-0.979 -0.366,-1.451c-0.172,-0.082 -0.243,-0.527 -0.499,-0.647c-1.232,-0.58 -2.306,-0.583 -3.584,-0.991c-1.118,-0.416 -2.233,-0.833 -3.349,-1.249c-1.697,-6.07 -0.405,-10.048 3.875,-11.935c0.677,-0.397 0.735,-1.489 0,-1.872c0.273,-1.733 0.547,-3.465 0.82,-5.196c1.372,-0.253 0.79,-2.345 -0.575,-2.092Z" style="fill:#fff;fill-rule:nonzero;"/><path d="M71.312,843.483c12.719,7.223 27.459,7.661 40.613,1.284c1.255,-0.608 0.157,-2.479 -1.096,-1.874c-12.442,6.034 -26.4,5.543 -38.423,-1.284c-1.214,-0.689 -2.309,1.183 -1.094,1.874Z" style="fill:#fff;fill-rule:nonzero;"/><path d="M69.211,847.091c14.293,6.916 30.377,6.604 44.374,-0.912c1.23,-0.658 0.136,-2.532 -1.095,-1.871c-13.269,7.122 -28.622,7.472 -42.185,0.909c-1.251,-0.606 -2.352,1.265 -1.094,1.874Z" style="fill:#fff;fill-rule:nonzero;"/><path d="M125.518,845.522c5.354,5.323 12.13,3.314 18.251,0.273c6.862,-3.413 8.944,-8.99 8.555,-16.378c-0.072,-1.389 -2.242,-1.398 -2.169,0c0.305,5.801 -0.752,10.625 -6.126,13.786c-5.124,3.012 -12.176,5.561 -16.978,0.786c-0.991,-0.984 -2.526,0.548 -1.533,1.533Z" style="fill:#fff;fill-rule:nonzero;"/><path d="M124.033,847.824c4.407,8.139 16.197,3.495 22.641,0.788c8.846,-3.714 8.39,-12.85 6.917,-21.105c-0.244,-1.37 -2.337,-0.789 -2.092,0.577c1.369,7.664 1.788,15.704 -6.91,19.014c-5.161,1.965 -15.124,6.206 -18.683,-0.367c-0.666,-1.228 -2.538,-0.135 -1.873,1.093Z" style="fill:#fff;fill-rule:nonzero;"/><path d="M154.697,824.996c-1.566,1.998 -1.904,3.521 -1.089,6.006c1.461,4.448 4.488,5.853 3.389,11.491c-0.75,3.85 -3.324,7.03 -6.111,9.623c-11.092,10.311 -28.558,12.286 -42.935,13.84c-14.977,1.618 -28.515,1.432 -43.046,-2.971c-6.832,-2.071 -13.993,-4.863 -19.299,-9.82c-6.701,-6.258 -5.729,-14.08 -5.806,-22.396c-0.013,-1.395 -2.182,-1.398 -2.169,0c0.058,6.292 -0.941,13.805 2.522,19.405c3.381,5.468 9.718,9.203 15.441,11.732c15.213,6.722 30.738,8.165 47.101,6.729c14.966,-1.313 31.934,-2.837 44.83,-11.242c4.582,-2.986 9.146,-7.063 11.004,-12.374c0.718,-2.058 1.067,-4.381 0.789,-6.56c-0.397,-3.135 -5.22,-9.208 -3.087,-11.929c0.852,-1.088 -0.674,-2.633 -1.534,-1.534Z" style="fill:#fff;fill-rule:nonzero;"/><path d="M38.869,846.839c-4.09,1.451 -3.434,6.224 -4.384,9.933c-1.115,4.368 -1.047,3.049 1.223,7.967c0.914,1.978 0.919,3.555 3.638,3.383c2.496,-0.158 2.827,-1.94 5.32,0.652c1.242,1.294 1.262,2.795 2.97,3.878c3.146,1.991 7.224,-1.757 9.303,0.286c1.864,1.832 -0.821,4.639 3.391,4.964c2.173,0.168 3.158,-1.782 5.212,-1.972c3.287,-0.301 0.833,0.926 3.405,2.779c3.26,2.347 5.602,-1.518 8.516,-0.665c2.669,0.779 3.087,3.83 6.467,3.674c3.066,-0.143 0.856,-1.159 3.768,-1.981c9.713,-2.733 2.58,-0.065 7.301,1.304c1.767,0.514 2.375,0.453 4.125,0.32c0.694,-0.053 1.251,-0.97 1.867,-1.073c2.556,-0.421 3.742,0.616 5.759,1.416c3.762,1.49 4.67,2.112 8.263,0.113c1.903,-1.059 1.211,-2.876 4.74,-2.373c1.205,0.172 3.066,1.764 4.444,2.007c3.59,0.634 6.126,-0.726 8.249,-3.524c1.561,-2.056 1.404,-2.904 3.701,-5.565c0.577,-0.667 1.555,-0.658 1.961,-1.516c1.645,-3.477 -1.101,-3.029 5.353,-3.065c1.516,-0.009 2.433,0.473 3.956,-0.204c3.886,-1.728 1.372,-3.391 8.094,-4.067c1.946,-0.197 2.624,0.854 4.691,0.173c4.174,-1.372 4.63,-4.474 4.123,-8.112c-0.026,-0.188 -1.519,-2.776 -1.126,-1.33c-1.736,-6.382 0.933,-2.61 0.759,-5.925c-0.081,-1.558 0.354,-2.333 -0.684,-3.729c-1.931,-2.6 -5.007,-1.708 -6.846,0.332c-0.93,1.035 0.598,2.575 1.535,1.534c0.521,0.44 1.043,0.875 1.563,1.312c1.653,0.502 2.004,1.19 1.056,2.066c0.003,0.093 -0.638,0.704 -0.613,1.017c0.081,1.075 -0.441,1.457 -0.245,2.333c0.18,0.809 1.256,1.439 1.409,2.084c1.69,7.057 -4.675,5.483 -8.116,5.476c-2.045,-0.005 -2.497,0.678 -4.091,1.681c-2.764,1.744 2.991,0.972 -3.587,2.01c-11.79,1.858 -1.254,0.405 -3.144,0.344c-1.667,-0.052 -2.225,-1.414 -4.016,-0.387c-1.209,0.694 -0.937,1.866 -1.519,2.825c-0.945,1.552 -3.879,4.759 -5.48,6.022c-0.206,0.165 -0.073,0.881 -0.254,1.018c-0.247,0.191 -11.208,2.314 -11.361,2.307c-0.549,-0.028 -1.037,-1.098 -1.702,-0.942c-2.098,0.488 -1.859,1.595 -3.447,2.305c-1.971,0.878 -6.561,1.038 -8.282,0.428c-0.2,-0.071 -0.591,-0.691 -0.921,-0.794c-0.787,-0.246 -1.313,-0.783 -2.188,-1.006c-0.697,-0.177 -0.87,0.442 -1.518,0.465c-2.302,0.081 -5.055,0.553 -7.507,-0.268c-1.893,-0.635 -1.29,-2.236 -4.15,-1.526c-1.38,0.344 -2.64,2.804 -3.684,2.982c-2.753,0.467 -4.565,-2.464 -6.407,-3.16c-1.876,-0.705 -0.927,-0.791 -3.617,-0.588c-1.654,0.124 6.999,0.036 -3.507,0.23c-1.096,0.02 -2.191,0.04 -3.287,0.06c-0.163,-0.42 -0.33,-0.841 -0.495,-1.262c-0.208,-0.051 -0.354,-0.687 -0.756,-0.756c-2.225,-0.385 -2.487,0.684 -4.478,1.065c-5.609,1.075 -3.097,-2.712 -5.912,-4.467c-0.706,-0.44 -1.526,-0.073 -2.295,-0.281c-0.185,-0.051 -0.387,0.155 -0.546,0.147c-0.547,0.349 -1.094,0.696 -1.64,1.044c-2.325,-1.211 -4.649,-2.423 -6.974,-3.633c-1.439,-1.144 -0.833,-1.783 -2.747,-2.622c-0.881,-0.386 -1.899,1.091 -2.619,1.031c-2.589,-0.211 -3.268,-2.232 -4.006,-4.053c-0.949,-2.328 -0.404,-1.769 0.539,-4.472c0.559,-1.611 0.889,-7.153 2.026,-7.556c1.307,-0.463 0.744,-2.561 -0.576,-2.093Z" style="fill:#fff;fill-rule:nonzero;"/><path d="M40.364,865.605c-0.552,12.561 7.495,16.845 18.223,21.602c12.044,5.341 25.271,8.018 38.445,7.682c13.71,-0.348 28.353,-3.827 40.962,-9.161c9.961,-4.212 16.015,-12.86 16.611,-23.647c0.076,-1.395 -2.093,-1.391 -2.169,0c-0.754,13.616 -10.191,20.317 -22.207,24.063c-10.811,3.369 -21.813,6.273 -33.197,6.576c-10.447,0.278 -20.946,-1.388 -30.816,-4.816c-4.899,-1.702 -9.627,-3.848 -14.134,-6.408c-6.754,-3.838 -9.909,-7.683 -9.549,-15.891c0.061,-1.396 -2.108,-1.393 -2.169,0Z" style="fill:#fff;fill-rule:nonzero;"/><path d="M59.185,801.31l0,-0.419c0,-1.396 -2.169,-1.399 -2.169,0l0,0.419c0,1.395 2.169,1.398 2.169,0Z" style="fill:#fff;fill-rule:nonzero;"/><path d="M71.478,790.687l0.419,0c1.395,0 1.398,-2.169 0,-2.169l-0.419,0c-1.394,0 -1.395,2.169 0,2.169Z" style="fill:#fff;fill-rule:nonzero;"/><path d="M105.765,793.195c1.396,0 1.398,-2.169 0,-2.169c-1.394,0 -1.397,2.169 0,2.169Z" style="fill:#fff;fill-rule:nonzero;"/><path d="M102.421,814.101c1.397,0 1.398,-2.169 0,-2.169c-1.396,0 -1.398,2.169 0,2.169Z" style="fill:#fff;fill-rule:nonzero;"/><path d="M71.478,815.356c1.397,0 1.398,-2.169 0,-2.169c-1.394,0 -1.395,2.169 0,2.169Z" style="fill:#fff;fill-rule:nonzero;"/><path d="M89.947,798.451c-0.141,0.14 -0.279,0.279 -0.418,0.42c-0.989,0.987 0.545,2.521 1.532,1.532c0.141,-0.139 0.28,-0.279 0.418,-0.418c0.989,-0.987 -0.543,-2.521 -1.532,-1.534Z" style="fill:#fff;fill-rule:nonzero;"/><path d="M94.059,783.578c1.395,0 1.397,-2.169 0,-2.169c-1.397,0 -1.398,2.169 0,2.169Z" style="fill:#fff;fill-rule:nonzero;"/><path d="M137.126,796.54c1.395,0 1.398,-2.169 0,-2.169c-1.397,0 -1.398,2.169 0,2.169Z" style="fill:#fff;fill-rule:nonzero;"/><path d="M131.52,812.598l0,-0.418c0,-1.395 -2.169,-1.398 -2.169,0l0,0.418c0,1.397 2.169,1.398 2.169,0Z" style="fill:#fff;fill-rule:nonzero;"/><path d="M122.074,800.721c1.395,0 1.397,-2.169 0,-2.169c-1.397,0 -1.398,2.169 0,2.169Z" style="fill:#fff;fill-rule:nonzero;"/><path d="M112.038,823.3c1.395,0 1.398,-2.169 0,-2.169c-1.396,0 -1.399,2.169 0,2.169Z" style="fill:#fff;fill-rule:nonzero;"/><path d="M88.135,819.776c-0.14,-0.139 -0.278,-0.279 -0.418,-0.418c-0.989,-0.988 -2.522,0.545 -1.534,1.534c0.139,0.139 0.279,0.279 0.418,0.418c0.989,0.988 2.523,-0.545 1.534,-1.534Z" style="fill:#fff;fill-rule:nonzero;"/><path d="M115.384,790.687c1.395,0 1.398,-2.169 0,-2.169c-1.397,0 -1.399,2.169 0,2.169Z" style="fill:#fff;fill-rule:nonzero;"/><path d="M70.224,801.139c1.397,0 1.398,-2.169 0,-2.169c-1.395,0 -1.398,2.169 0,2.169Z" style="fill:#fff;fill-rule:nonzero;"/><path d="M59.354,813.265c1.395,0 1.398,-2.169 0,-2.169c-1.396,0 -1.399,2.169 0,2.169Z" style="fill:#fff;fill-rule:nonzero;"/></g><g><path d="M155.33,493.707c-4.678,-9.193 -15.634,-15.653 -24.742,-19.852c-9.822,-4.53 -20.691,-6.92 -31.507,-6.861c-11.781,0.063 -22.079,3.882 -32.647,8.758c-9.979,4.602 -21.922,11.883 -21.073,24.534c1.633,24.379 40.124,25.491 57.639,25.05c17.315,-0.438 59.254,-5.274 52.614,-31.53c-0.344,-1.354 1.748,-1.931 2.091,-0.577c4.844,19.154 -15.334,27.916 -30.639,31.463c-20.327,4.71 -45.745,4.989 -65.394,-2.815c-14.511,-5.765 -24.676,-21.41 -13.946,-35.537c5.726,-7.537 14.88,-11.343 23.3,-14.997c9.842,-4.271 19.633,-6.784 30.418,-6.492c10.431,0.282 20.765,2.776 30.24,7.131c9.368,4.306 20.693,11.146 25.518,20.631c0.632,1.24 -1.238,2.339 -1.872,1.094Z" style="fill:#fff;fill-rule:nonzero;"/><path d="M158.054,501.382c5.461,1.008 6.156,6.647 1.339,9.16l0,-1.872c6.725,3.962 11.905,12.627 2.008,16.533c-0.811,0.319 -2.237,0.351 -2.942,0.789c-1.428,0.889 -0.881,1.251 -1.775,2.761c-1.132,1.912 0.128,2.089 -2.106,3.629c-2.871,1.978 -5.862,0.318 -8.125,-1.585c0.604,-0.351 1.209,-0.703 1.812,-1.054c0.695,3.275 -0.01,6.672 -3.111,8.469c-2.666,1.546 -4.42,-0.375 -6.645,0.289c-1.667,0.494 -2.571,2.621 -4.297,3.566c-3.732,2.037 -6.218,0.41 -8.763,-2.257c-3.201,-3.354 -6.249,-5.155 -3.99,-10.152c0.494,0.496 0.99,0.99 1.484,1.483c-3.847,2.557 -7.651,2.24 -11.2,-0.649c0.605,-0.351 1.209,-0.703 1.813,-1.054c1.026,3.647 -0.362,7.183 -4.291,8.347c-4.934,1.464 -9.134,-2.036 -12.334,-5.27c0.605,-0.159 1.208,-0.318 1.812,-0.479c-1.095,3.252 -3.402,5.612 -6.936,6.124c-1.323,0.192 -3.336,-0.742 -4.352,-0.093c-1.302,0.835 -2.14,3.615 -3.609,4.723c-2.845,2.138 -6.604,2.677 -9.853,1.077c-1.89,-0.931 -2.558,-3.397 -3.991,-4.199c-1.865,-1.047 -4.57,-0.292 -6.764,-1.41c-2.49,-1.268 -4.049,-4.015 -5.752,-5.58c-0.966,-0.888 -1.966,-0.851 -2.675,-2.216c-0.967,-1.861 0.586,-3.098 0.206,-4.836c-0.682,-3.126 -2.398,-0.176 -4.292,0.781c-1.129,0.57 -2.218,0.794 -3.499,0.412c-3.494,-1.039 -3.53,-4.515 -2.249,-7.218c0.408,0.531 0.816,1.062 1.227,1.592c-5.267,1.971 -9.045,-0.486 -10.816,-5.5c-0.915,-2.594 -0.49,-2.318 -2.374,-4.352c-0.492,-0.531 -1.14,-0.936 -1.585,-1.526c-1.215,-1.605 -1.773,-3.566 -1.196,-5.549c0.641,-2.211 1.67,-2.493 1.88,-4.461c0.24,-2.261 -1.255,-2.613 0.664,-4.478c4.599,-4.472 9.457,3.398 11.785,5.95c0.939,1.028 -0.59,2.566 -1.535,1.533c-0.522,-0.496 -0.999,-1.031 -1.432,-1.603c-1.152,-2.547 -3.202,-2.663 -6.154,-0.348c0.311,0.435 0.118,1.27 -0.387,1.484c-9.955,4.213 1.242,7.472 2.264,9.288c0.097,0.168 0.148,0.352 0.149,0.547c-0.305,3.963 2.416,6.271 8.158,6.924c0.972,-0.363 1.589,0.826 1.226,1.594c2.302,3.054 3.914,3.538 4.837,1.454c0.195,-0.373 0.427,-0.723 0.688,-1.048c0.479,-0.192 0.782,-0.802 1.261,-1.002c1.082,-0.453 1.858,-0.577 2.875,-0.055c0.897,0.461 1.155,0.956 1.451,1.956c0.399,1.347 -2.821,9.409 0.835,8.274c0.575,-0.178 1.158,0.213 1.331,0.758c2.908,9.095 5.963,4.56 10.804,6.223c0.327,0.113 1.086,1.404 0.942,1.317c2.059,1.365 4.119,2.733 6.178,4.098c4.221,-0.623 6.854,-2.924 7.904,-6.9c0.234,-0.681 0.942,-0.985 1.592,-0.648c3.035,-1.222 6.068,-2.442 9.102,-3.662c0.256,-0.758 1.213,-1.085 1.813,-0.479c1.576,1.592 16.225,10.505 13,-0.969c-0.314,-1.122 1.02,-1.7 1.812,-1.055c2.859,0.104 5.714,0.208 8.573,0.311c0.992,-0.66 1.888,0.588 1.482,1.485c-2.635,5.827 9.947,12.255 13.119,5.147c0.23,-0.513 1.035,-0.687 1.483,-0.387c2.746,-1.734 5.494,-3.465 8.239,-5.196c-0.231,-1.096 0.984,-1.753 1.814,-1.055c3.992,0.685 6.122,-0.13 6.389,-2.448c0.059,-0.496 0.182,-0.979 0.366,-1.45c0.172,-0.083 0.243,-0.528 0.499,-0.648c1.232,-0.58 2.306,-0.583 3.584,-0.991c1.118,-0.416 2.233,-0.832 3.349,-1.249c1.698,-6.07 0.405,-10.048 -3.875,-11.935c-0.677,-0.397 -0.735,-1.489 0,-1.872c-0.273,-1.732 -0.547,-3.464 -0.82,-5.195c-1.372,-0.253 -0.789,-2.346 0.576,-2.093Z" style="fill:#fff;fill-rule:nonzero;"/><path d="M125.6,537.654c-12.72,7.222 -27.46,7.66 -40.614,1.284c-1.255,-0.609 -0.157,-2.48 1.096,-1.874c12.443,6.034 26.4,5.542 38.423,-1.284c1.215,-0.69 2.309,1.183 1.095,1.874Z" style="fill:#fff;fill-rule:nonzero;"/><path d="M127.701,541.261c-14.293,6.916 -30.378,6.604 -44.375,-0.912c-1.23,-0.658 -0.136,-2.532 1.095,-1.871c13.269,7.123 28.622,7.472 42.185,0.909c1.251,-0.605 2.353,1.266 1.095,1.874Z" style="fill:#fff;fill-rule:nonzero;"/><path d="M71.393,539.692c-5.354,5.323 -12.13,3.315 -18.25,0.274c-6.863,-3.414 -8.945,-8.991 -8.556,-16.378c0.072,-1.39 2.243,-1.399 2.169,0c-0.305,5.801 0.752,10.624 6.126,13.785c5.125,3.012 12.177,5.561 16.978,0.787c0.991,-0.985 2.527,0.548 1.533,1.532Z" style="fill:#fff;fill-rule:nonzero;"/><path d="M72.878,541.994c-4.407,8.14 -16.197,3.495 -22.64,0.788c-8.847,-3.714 -8.391,-12.85 -6.918,-21.104c0.245,-1.371 2.337,-0.79 2.093,0.576c-1.37,7.664 -1.789,15.705 6.91,19.015c5.16,1.965 15.123,6.205 18.683,-0.368c0.665,-1.227 2.537,-0.134 1.872,1.093Z" style="fill:#fff;fill-rule:nonzero;"/><path d="M42.214,519.166c1.566,1.998 1.904,3.521 1.089,6.006c-1.46,4.448 -4.488,5.854 -3.389,11.491c0.75,3.851 3.324,7.03 6.112,9.623c11.091,10.311 28.557,12.286 42.934,13.84c14.977,1.618 28.515,1.432 43.047,-2.971c6.832,-2.071 13.992,-4.863 19.298,-9.819c6.701,-6.258 5.729,-14.081 5.806,-22.396c0.013,-1.396 2.182,-1.399 2.169,0c-0.058,6.291 0.941,13.804 -2.522,19.404c-3.38,5.469 -9.718,9.203 -15.441,11.732c-15.213,6.722 -30.738,8.165 -47.101,6.73c-14.966,-1.313 -31.934,-2.837 -44.83,-11.242c-4.582,-2.986 -9.145,-7.064 -11.004,-12.375c-0.718,-2.057 -1.067,-4.381 -0.789,-6.56c0.398,-3.135 5.22,-9.208 3.087,-11.929c-0.852,-1.087 0.674,-2.633 1.534,-1.534Z" style="fill:#fff;fill-rule:nonzero;"/><path d="M158.042,541.01c4.091,1.45 3.434,6.223 4.384,9.932c1.115,4.368 1.047,3.049 -1.223,7.967c-0.914,1.978 -0.918,3.555 -3.638,3.383c-2.496,-0.157 -2.827,-1.94 -5.32,0.652c-1.242,1.295 -1.262,2.795 -2.97,3.878c-3.146,1.992 -7.223,-1.756 -9.303,0.287c-1.864,1.832 0.822,4.638 -3.39,4.964c-2.174,0.167 -3.158,-1.783 -5.213,-1.973c-3.287,-0.3 -0.833,0.926 -3.405,2.779c-3.259,2.347 -5.602,-1.518 -8.515,-0.665c-2.67,0.78 -3.087,3.831 -6.468,3.674c-3.065,-0.143 -0.856,-1.159 -3.768,-1.98c-9.712,-2.733 -2.58,-0.066 -7.301,1.304c-1.766,0.513 -2.375,0.452 -4.125,0.319c-0.694,-0.053 -1.251,-0.97 -1.866,-1.073c-2.557,-0.42 -3.743,0.616 -5.76,1.416c-3.762,1.491 -4.67,2.113 -8.263,0.113c-1.903,-1.059 -1.21,-2.876 -4.74,-2.373c-1.204,0.172 -3.065,1.764 -4.443,2.007c-3.591,0.635 -6.127,-0.726 -8.249,-3.524c-1.562,-2.056 -1.404,-2.903 -3.702,-5.565c-0.577,-0.667 -1.554,-0.658 -1.961,-1.515c-1.645,-3.478 1.101,-3.03 -5.352,-3.066c-1.517,-0.009 -2.434,0.473 -3.957,-0.204c-3.886,-1.728 -1.372,-3.39 -8.094,-4.067c-1.946,-0.197 -2.624,0.854 -4.69,0.173c-4.175,-1.372 -4.63,-4.473 -4.124,-8.111c0.026,-0.188 1.519,-2.777 1.126,-1.331c1.737,-6.382 -0.933,-2.609 -0.759,-5.925c0.081,-1.557 -0.354,-2.332 0.684,-3.729c1.932,-2.6 5.007,-1.708 6.846,0.332c0.93,1.036 -0.598,2.576 -1.535,1.535c-0.521,0.439 -1.043,0.874 -1.563,1.311c-1.653,0.502 -2.004,1.19 -1.056,2.066c-0.003,0.093 0.638,0.704 0.613,1.017c-0.081,1.076 0.441,1.457 0.245,2.334c-0.18,0.808 -1.255,1.438 -1.409,2.083c-1.69,7.058 4.675,5.483 8.116,5.476c2.045,-0.004 2.497,0.678 4.091,1.681c2.765,1.744 -2.99,0.972 3.587,2.01c11.79,1.858 1.254,0.405 3.144,0.344c1.667,-0.052 2.225,-1.414 4.017,-0.387c1.208,0.694 0.936,1.867 1.518,2.825c0.945,1.552 3.879,4.759 5.48,6.023c0.207,0.164 0.074,0.88 0.254,1.018c0.248,0.19 11.208,2.313 11.361,2.306c0.55,-0.028 1.037,-1.098 1.702,-0.941c2.098,0.487 1.859,1.594 3.447,2.304c1.971,0.878 6.562,1.039 8.282,0.428c0.2,-0.071 0.592,-0.691 0.921,-0.793c0.787,-0.246 1.313,-0.784 2.188,-1.007c0.697,-0.176 0.871,0.443 1.518,0.466c2.302,0.081 5.055,0.552 7.508,-0.269c1.892,-0.635 1.289,-2.236 4.149,-1.526c1.38,0.344 2.641,2.804 3.685,2.982c2.753,0.467 4.564,-2.464 6.407,-3.16c1.875,-0.705 0.926,-0.79 3.616,-0.588c1.654,0.124 -6.998,0.036 3.508,0.23c1.096,0.02 2.19,0.04 3.286,0.061c0.164,-0.421 0.33,-0.842 0.495,-1.263c0.208,-0.05 0.354,-0.686 0.756,-0.756c2.225,-0.385 2.487,0.684 4.478,1.066c5.609,1.074 3.097,-2.713 5.912,-4.468c0.706,-0.44 1.526,-0.072 2.295,-0.281c0.185,-0.05 0.388,0.155 0.547,0.148c0.546,0.348 1.093,0.695 1.639,1.044c2.325,-1.212 4.649,-2.424 6.974,-3.634c1.439,-1.144 0.833,-1.783 2.747,-2.621c0.881,-0.386 1.899,1.09 2.619,1.031c2.59,-0.212 3.268,-2.233 4.007,-4.053c0.948,-2.328 0.403,-1.77 -0.54,-4.473c-0.559,-1.61 -0.889,-7.153 -2.025,-7.556c-1.308,-0.463 -0.745,-2.561 0.575,-2.092Z" style="fill:#fff;fill-rule:nonzero;"/><path d="M156.547,559.775c0.552,12.561 -7.494,16.845 -18.223,21.602c-12.043,5.342 -25.271,8.018 -38.445,7.682c-13.71,-0.348 -28.353,-3.827 -40.961,-9.161c-9.961,-4.212 -16.016,-12.86 -16.611,-23.647c-0.077,-1.395 2.092,-1.391 2.169,0c0.753,13.617 10.191,20.317 22.206,24.063c10.812,3.369 21.814,6.273 33.197,6.577c10.447,0.277 20.946,-1.389 30.816,-4.817c4.899,-1.702 9.627,-3.847 14.134,-6.408c6.754,-3.838 9.909,-7.682 9.549,-15.891c-0.061,-1.395 2.108,-1.392 2.169,0Z" style="fill:#fff;fill-rule:nonzero;"/><path d="M137.727,495.48l0,-0.419c0,-1.395 2.169,-1.398 2.169,0l0,0.419c0,1.395 -2.169,1.398 -2.169,0Z" style="fill:#fff;fill-rule:nonzero;"/><path d="M125.433,484.857l-0.419,0c-1.395,0 -1.398,-2.169 0,-2.169l0.419,0c1.394,0 1.396,2.169 0,2.169Z" style="fill:#fff;fill-rule:nonzero;"/><path d="M91.146,487.366c-1.395,0 -1.398,-2.169 0,-2.169c1.394,0 1.397,2.169 0,2.169Z" style="fill:#fff;fill-rule:nonzero;"/><path d="M94.49,508.271c-1.396,0 -1.398,-2.169 0,-2.169c1.396,0 1.399,2.169 0,2.169Z" style="fill:#fff;fill-rule:nonzero;"/><path d="M125.433,509.526c-1.396,0 -1.398,-2.169 0,-2.169c1.394,0 1.396,2.169 0,2.169Z" style="fill:#fff;fill-rule:nonzero;"/><path d="M106.965,492.622c0.14,0.14 0.279,0.279 0.417,0.419c0.989,0.987 -0.545,2.522 -1.532,1.533c-0.141,-0.139 -0.279,-0.28 -0.418,-0.418c-0.989,-0.988 0.543,-2.522 1.533,-1.534Z" style="fill:#fff;fill-rule:nonzero;"/><path d="M102.852,477.749c-1.395,0 -1.396,-2.169 0,-2.169c1.397,0 1.399,2.169 0,2.169Z" style="fill:#fff;fill-rule:nonzero;"/><path d="M59.785,490.71c-1.395,0 -1.398,-2.169 0,-2.169c1.397,0 1.398,2.169 0,2.169Z" style="fill:#fff;fill-rule:nonzero;"/><path d="M65.391,506.769l0,-0.418c0,-1.396 2.169,-1.399 2.169,0l0,0.418c0,1.396 -2.169,1.398 -2.169,0Z" style="fill:#fff;fill-rule:nonzero;"/><path d="M74.837,494.892c-1.395,0 -1.396,-2.169 0,-2.169c1.397,0 1.399,2.169 0,2.169Z" style="fill:#fff;fill-rule:nonzero;"/><path d="M84.874,517.47c-1.396,0 -1.399,-2.169 0,-2.169c1.395,0 1.398,2.169 0,2.169Z" style="fill:#fff;fill-rule:nonzero;"/><path d="M108.776,513.946c0.141,-0.139 0.278,-0.279 0.418,-0.418c0.989,-0.987 2.522,0.545 1.534,1.534c-0.139,0.139 -0.279,0.279 -0.418,0.418c-0.989,0.988 -2.523,-0.545 -1.534,-1.534Z" style="fill:#fff;fill-rule:nonzero;"/><path d="M81.528,484.857c-1.396,0 -1.399,-2.169 0,-2.169c1.396,0 1.398,2.169 0,2.169Z" style="fill:#fff;fill-rule:nonzero;"/><path d="M126.687,495.31c-1.397,0 -1.398,-2.169 0,-2.169c1.395,0 1.398,2.169 0,2.169Z" style="fill:#fff;fill-rule:nonzero;"/><path d="M137.558,507.435c-1.396,0 -1.399,-2.169 0,-2.169c1.395,0 1.398,2.169 0,2.169Z" style="fill:#fff;fill-rule:nonzero;"/></g></g><g><g><path d="M264.681,825.775c19.991,-6.461 41.757,-5.784 61.669,0.693c16.284,5.297 37.408,14.949 39.57,34.36c0.83,7.437 -2.129,14.133 -9.951,15.661c-9.34,1.826 -18.924,-4.998 -27.255,-8.085c-11.182,-4.143 -22.923,-6.831 -34.803,-7.895c-9.662,-0.866 -21.026,1.191 -29.962,-3.337c-6.792,-3.443 -12.182,-13.106 -9.353,-20.701c2.483,-6.671 8.865,-10.254 15.225,-12.234c1.048,-0.326 1.496,1.317 0.452,1.642c-10.564,3.288 -18.368,12.173 -12.083,23.532c6.122,11.067 21.059,8.46 31.617,9.088c10.347,0.616 20.631,2.411 30.572,5.342c4.608,1.357 9.14,2.961 13.578,4.798c4.987,2.065 9.866,4.975 15.197,6.035c8.513,1.69 15.512,-2.947 15.205,-12.046c-0.178,-5.293 -2.41,-10.437 -5.504,-14.662c-7.12,-9.721 -19.149,-14.983 -30.165,-18.911c-20.372,-7.263 -42.899,-8.316 -63.556,-1.639c-1.045,0.338 -1.492,-1.305 -0.453,-1.641Z" style="fill:#fff;fill-rule:nonzero;"/><path d="M254.809,840.469c-6.526,0.108 -15.138,2.88 -18.57,8.782c-5.653,9.72 4.69,16.433 13.315,16.59c7.904,0.144 15.795,-1.105 23.739,-0.904c7.113,0.179 14.213,0.87 21.233,2.02c14.633,2.4 28.908,6.899 42.263,13.343c7.608,3.672 18.692,10.428 27.276,5.434c6.277,-3.652 5.03,-13.109 0.024,-17.176c-0.85,-0.689 0.36,-1.888 1.204,-1.203c6.092,4.95 6.755,16.281 -0.928,20.116c-5.833,2.912 -13.426,1.159 -19.097,-1.178c-8.102,-3.338 -15.676,-7.679 -23.969,-10.65c-17.284,-6.195 -35.676,-9.304 -54.04,-9.042c-10.034,0.144 -30.046,5.243 -33.71,-8.695c-3.207,-12.202 11.22,-18.973 21.26,-19.138c1.095,-0.019 1.096,1.683 0,1.701Z" style="fill:#fff;fill-rule:nonzero;"/><path d="M250.46,866.256c5.298,8.367 15.645,8.753 24.52,8.992c8.533,0.229 17.09,0.697 25.521,2.109c8.296,1.389 16.495,3.725 23.978,7.626c5.974,3.114 24.438,15.814 27.885,3.155c0.288,-1.055 1.93,-0.607 1.641,0.453c-1.941,7.127 -10.24,7.151 -16.176,5.279c-4.824,-1.522 -8.944,-4.583 -13.356,-6.959c-5.877,-3.163 -12.226,-5.333 -18.726,-6.801c-11.973,-2.705 -24.005,-2.625 -36.171,-3.301c-7.898,-0.438 -16.138,-2.668 -20.584,-9.694c-0.588,-0.928 0.884,-1.782 1.468,-0.859Z" style="fill:#fff;fill-rule:nonzero;"/><path d="M248.992,840.012c4.945,-6.887 10.072,-11.743 18.066,-14.98c1.016,-0.41 1.458,1.235 0.454,1.641c-7.525,3.046 -12.394,7.713 -17.052,14.198c-0.632,0.882 -2.109,0.033 -1.468,-0.859Z" style="fill:#fff;fill-rule:nonzero;"/><path d="M283.98,850.152c-0.539,-5.739 -2.725,-10.969 -6.43,-15.387c-0.699,-0.834 0.499,-2.045 1.203,-1.204c4.01,4.782 6.346,10.376 6.929,16.591c0.102,1.09 -1.601,1.082 -1.702,0Z" style="fill:#fff;fill-rule:nonzero;"/><path d="M324.287,856.719c-0.475,-6.953 -2.927,-13.353 -7.252,-18.824c-0.671,-0.85 0.525,-2.063 1.204,-1.204c4.621,5.847 7.243,12.59 7.749,20.028c0.075,1.093 -1.628,1.088 -1.701,0Z" style="fill:#fff;fill-rule:nonzero;"/><path d="M340.802,863.524c-1.736,-7.676 -4.581,-14.87 -8.577,-21.656c-0.556,-0.945 0.915,-1.801 1.471,-0.857c4.067,6.908 6.979,14.24 8.747,22.061c0.241,1.066 -1.4,1.522 -1.641,0.452Z" style="fill:#fff;fill-rule:nonzero;"/><path d="M263.312,860.75c1.803,2.496 4.965,3.272 7.804,3.958c1.064,0.256 0.613,1.898 -0.453,1.64c-3.351,-0.808 -6.716,-1.824 -8.821,-4.74c-0.643,-0.888 0.833,-1.739 1.47,-0.858Z" style="fill:#fff;fill-rule:nonzero;"/><path d="M278.159,862.491c1.305,1.409 2.84,2.476 4.606,3.228c1.005,0.427 0.139,1.894 -0.859,1.47c-1.888,-0.803 -3.558,-1.991 -4.951,-3.496c-0.743,-0.802 0.457,-2.009 1.204,-1.202Z" style="fill:#fff;fill-rule:nonzero;"/><path d="M292.701,863.399c1.912,1.93 4.137,3.452 6.654,4.481c1.001,0.408 0.563,2.056 -0.451,1.642c-2.798,-1.145 -5.278,-2.769 -7.407,-4.919c-0.77,-0.779 0.431,-1.983 1.204,-1.204Z" style="fill:#fff;fill-rule:nonzero;"/><path d="M308.043,865.435c1.559,2.528 3.702,4.518 6.322,5.912c0.966,0.514 0.107,1.983 -0.859,1.469c-2.87,-1.526 -5.227,-3.756 -6.931,-6.521c-0.578,-0.935 0.894,-1.79 1.468,-0.86Z" style="fill:#fff;fill-rule:nonzero;"/><path d="M321.246,868.892c1.28,2.356 2.852,4.488 4.731,6.4c0.768,0.783 -0.434,1.987 -1.203,1.204c-1.977,-2.012 -3.651,-4.266 -4.997,-6.744c-0.523,-0.963 0.946,-1.823 1.469,-0.86Z" style="fill:#fff;fill-rule:nonzero;"/><path d="M335.687,874.78c1.63,2.939 3.709,5.515 6.23,7.736c0.822,0.726 -0.385,1.925 -1.204,1.204c-2.622,-2.311 -4.799,-5.024 -6.496,-8.08c-0.533,-0.958 0.937,-1.817 1.47,-0.86Z" style="fill:#fff;fill-rule:nonzero;"/><path d="M297.602,834.632c5.016,4.612 7.785,10.828 7.891,17.639c0.018,1.096 -1.683,1.096 -1.702,0c-0.101,-6.394 -2.685,-12.108 -7.391,-16.435c-0.808,-0.743 0.397,-1.945 1.202,-1.204Z" style="fill:#fff;fill-rule:nonzero;"/></g><g><path d="M338.408,519.946c-19.992,-6.462 -41.758,-5.784 -61.67,0.692c-16.283,5.297 -37.407,14.949 -39.569,34.361c-0.83,7.436 2.129,14.132 9.951,15.66c9.34,1.826 18.924,-4.997 27.255,-8.085c11.181,-4.143 22.923,-6.831 34.802,-7.895c9.662,-0.866 21.026,1.191 29.962,-3.337c6.793,-3.442 12.183,-13.106 9.354,-20.701c-2.484,-6.671 -8.866,-10.254 -15.225,-12.234c-1.048,-0.325 -1.496,1.317 -0.453,1.642c10.564,3.288 18.369,12.173 12.084,23.532c-6.123,11.067 -21.059,8.46 -31.617,9.088c-10.347,0.617 -20.631,2.411 -30.572,5.342c-4.608,1.357 -9.141,2.961 -13.578,4.798c-4.988,2.065 -9.866,4.975 -15.198,6.035c-8.512,1.691 -15.512,-2.946 -15.204,-12.046c0.178,-5.293 2.41,-10.437 5.504,-14.662c7.12,-9.721 19.149,-14.982 30.165,-18.91c20.371,-7.264 42.899,-8.317 63.556,-1.64c1.045,0.338 1.492,-1.304 0.453,-1.64Z" style="fill:#fff;fill-rule:nonzero;"/><path d="M348.28,534.64c6.526,0.108 15.137,2.879 18.569,8.781c5.654,9.72 -4.689,16.434 -13.314,16.59c-7.905,0.144 -15.796,-1.105 -23.739,-0.904c-7.114,0.179 -14.213,0.87 -21.234,2.021c-14.632,2.399 -28.908,6.898 -42.262,13.343c-7.608,3.671 -18.692,10.428 -27.276,5.433c-6.277,-3.652 -5.03,-13.109 -0.024,-17.175c0.85,-0.69 -0.36,-1.888 -1.204,-1.204c-6.093,4.95 -6.755,16.281 0.928,20.116c5.833,2.913 13.426,1.16 19.096,-1.178c8.102,-3.338 15.677,-7.678 23.97,-10.65c17.284,-6.195 35.675,-9.304 54.04,-9.041c10.034,0.144 30.046,5.242 33.71,-8.696c3.207,-12.201 -11.22,-18.972 -21.26,-19.138c-1.095,-0.018 -1.096,1.684 0,1.702Z" style="fill:#fff;fill-rule:nonzero;"/><path d="M352.629,560.427c-5.298,8.366 -15.645,8.752 -24.52,8.991c-8.533,0.229 -17.09,0.697 -25.521,2.109c-8.296,1.389 -16.495,3.725 -23.979,7.626c-5.973,3.114 -24.438,15.814 -27.884,3.155c-0.289,-1.055 -1.93,-0.607 -1.641,0.453c1.941,7.127 10.24,7.151 16.176,5.279c4.824,-1.521 8.944,-4.582 13.356,-6.958c5.877,-3.163 12.225,-5.334 18.725,-6.802c11.974,-2.705 24.006,-2.624 36.172,-3.301c7.898,-0.438 16.137,-2.668 20.584,-9.694c0.587,-0.928 -0.884,-1.782 -1.468,-0.858Z" style="fill:#fff;fill-rule:nonzero;"/><path d="M354.097,534.182c-4.945,-6.886 -10.072,-11.742 -18.066,-14.979c-1.016,-0.411 -1.458,1.234 -0.454,1.64c7.524,3.047 12.394,7.713 17.052,14.198c0.632,0.882 2.109,0.033 1.468,-0.859Z" style="fill:#fff;fill-rule:nonzero;"/><path d="M319.108,544.322c0.539,-5.738 2.726,-10.969 6.431,-15.387c0.699,-0.834 -0.499,-2.044 -1.204,-1.204c-4.009,4.783 -6.345,10.376 -6.929,16.591c-0.102,1.091 1.601,1.083 1.702,0Z" style="fill:#fff;fill-rule:nonzero;"/><path d="M278.802,550.889c0.474,-6.952 2.926,-13.353 7.251,-18.824c0.672,-0.849 -0.524,-2.062 -1.203,-1.203c-4.622,5.846 -7.244,12.589 -7.75,20.027c-0.075,1.093 1.628,1.088 1.702,0Z" style="fill:#fff;fill-rule:nonzero;"/><path d="M262.287,557.695c1.736,-7.677 4.58,-14.87 8.576,-21.656c0.556,-0.945 -0.914,-1.802 -1.47,-0.858c-4.067,6.908 -6.979,14.24 -8.748,22.061c-0.24,1.066 1.4,1.522 1.642,0.453Z" style="fill:#fff;fill-rule:nonzero;"/><path d="M339.777,554.92c-1.803,2.497 -4.965,3.273 -7.805,3.958c-1.063,0.256 -0.612,1.898 0.454,1.641c3.351,-0.808 6.716,-1.825 8.82,-4.741c0.644,-0.888 -0.832,-1.739 -1.469,-0.858Z" style="fill:#fff;fill-rule:nonzero;"/><path d="M324.93,556.661c-1.305,1.409 -2.84,2.477 -4.606,3.228c-1.006,0.428 -0.139,1.895 0.858,1.47c1.888,-0.803 3.558,-1.991 4.952,-3.495c0.743,-0.803 -0.458,-2.01 -1.204,-1.203Z" style="fill:#fff;fill-rule:nonzero;"/><path d="M310.388,557.57c-1.912,1.93 -4.137,3.451 -6.654,4.48c-1.001,0.409 -0.563,2.056 0.451,1.642c2.798,-1.145 5.278,-2.768 7.407,-4.918c0.77,-0.78 -0.431,-1.984 -1.204,-1.204Z" style="fill:#fff;fill-rule:nonzero;"/><path d="M295.046,559.605c-1.559,2.528 -3.702,4.518 -6.322,5.913c-0.967,0.513 -0.108,1.983 0.859,1.469c2.869,-1.526 5.227,-3.757 6.931,-6.522c0.578,-0.935 -0.894,-1.79 -1.468,-0.86Z" style="fill:#fff;fill-rule:nonzero;"/><path d="M281.843,563.062c-1.28,2.357 -2.852,4.489 -4.731,6.4c-0.768,0.783 0.434,1.987 1.202,1.204c1.978,-2.011 3.651,-4.266 4.998,-6.744c0.523,-0.963 -0.946,-1.823 -1.469,-0.86Z" style="fill:#fff;fill-rule:nonzero;"/><path d="M267.402,568.951c-1.631,2.938 -3.709,5.514 -6.23,7.735c-0.823,0.726 0.384,1.926 1.204,1.204c2.622,-2.311 4.799,-5.024 6.496,-8.079c0.532,-0.959 -0.937,-1.818 -1.47,-0.86Z" style="fill:#fff;fill-rule:nonzero;"/><path d="M305.487,528.802c-5.016,4.612 -7.785,10.829 -7.892,17.64c-0.018,1.096 1.684,1.096 1.702,0c0.101,-6.395 2.686,-12.109 7.392,-16.436c0.808,-0.743 -0.397,-1.945 -1.202,-1.204Z" style="fill:#fff;fill-rule:nonzero;"/></g><g><path d="M244.67,738.422c4.678,9.193 15.634,15.654 24.742,19.853c9.822,4.53 20.691,6.92 31.507,6.861c11.781,-0.064 22.079,-3.882 32.647,-8.758c9.979,-4.603 21.922,-11.883 21.073,-24.535c-1.633,-24.378 -40.124,-25.49 -57.639,-25.049c-17.315,0.438 -59.254,5.273 -52.614,31.53c0.344,1.353 -1.748,1.93 -2.091,0.577c-4.844,-19.154 15.334,-27.917 30.639,-31.464c20.327,-4.709 45.745,-4.988 65.394,2.816c14.511,5.765 24.676,21.41 13.946,35.536c-5.726,7.538 -14.88,11.344 -23.3,14.997c-9.842,4.272 -19.633,6.785 -30.418,6.493c-10.431,-0.282 -20.765,-2.776 -30.24,-7.132c-9.368,-4.306 -20.693,-11.145 -25.518,-20.63c-0.632,-1.241 1.238,-2.34 1.872,-1.095Z" style="fill:#fff;fill-rule:nonzero;"/><path d="M241.946,730.747c-5.461,-1.008 -6.156,-6.647 -1.339,-9.16l0,1.873c-6.725,-3.962 -11.905,-12.628 -2.008,-16.533c0.811,-0.32 2.237,-0.351 2.942,-0.79c1.428,-0.889 0.881,-1.25 1.775,-2.76c1.132,-1.913 -0.128,-2.089 2.106,-3.629c2.871,-1.978 5.862,-0.318 8.125,1.585c-0.604,0.351 -1.209,0.702 -1.812,1.054c-0.695,-3.275 0.01,-6.672 3.111,-8.469c2.666,-1.546 4.42,0.374 6.645,-0.289c1.667,-0.495 2.571,-2.622 4.297,-3.566c3.732,-2.037 6.218,-0.411 8.763,2.257c3.201,3.353 6.249,5.155 3.99,10.152c-0.494,-0.496 -0.99,-0.99 -1.484,-1.484c3.847,-2.556 7.651,-2.239 11.2,0.65c-0.605,0.351 -1.209,0.702 -1.813,1.054c-1.026,-3.647 0.362,-7.184 4.291,-8.348c4.934,-1.463 9.134,2.036 12.334,5.271c-0.605,0.159 -1.208,0.318 -1.812,0.478c1.095,-3.251 3.402,-5.611 6.936,-6.123c1.323,-0.192 3.336,0.742 4.352,0.092c1.302,-0.834 2.14,-3.614 3.609,-4.722c2.845,-2.138 6.604,-2.678 9.853,-1.077c1.89,0.931 2.558,3.396 3.991,4.199c1.865,1.047 4.57,0.292 6.764,1.41c2.49,1.268 4.049,4.015 5.752,5.579c0.966,0.888 1.966,0.852 2.675,2.217c0.967,1.861 -0.586,3.097 -0.206,4.835c0.682,3.126 2.398,0.177 4.292,-0.781c1.129,-0.569 2.218,-0.793 3.499,-0.412c3.494,1.04 3.53,4.516 2.249,7.218c-0.408,-0.53 -0.816,-1.061 -1.227,-1.591c5.267,-1.971 9.045,0.485 10.816,5.5c0.915,2.594 0.49,2.318 2.374,4.352c0.492,0.531 1.14,0.936 1.585,1.526c1.215,1.605 1.773,3.565 1.196,5.549c-0.641,2.211 -1.67,2.493 -1.88,4.461c-0.24,2.261 1.255,2.613 -0.664,4.478c-4.599,4.472 -9.457,-3.398 -11.785,-5.95c-0.939,-1.028 0.59,-2.567 1.535,-1.533c0.522,0.496 0.999,1.031 1.432,1.602c1.152,2.548 3.202,2.664 6.154,0.349c-0.311,-0.436 -0.118,-1.27 0.387,-1.484c9.955,-4.213 -1.242,-7.472 -2.264,-9.289c-0.097,-0.167 -0.148,-0.351 -0.149,-0.546c0.305,-3.963 -2.416,-6.271 -8.158,-6.925c-0.972,0.363 -1.589,-0.825 -1.226,-1.593c-2.302,-3.054 -3.914,-3.538 -4.837,-1.455c-0.195,0.373 -0.427,0.723 -0.688,1.049c-0.479,0.192 -0.782,0.802 -1.261,1.002c-1.082,0.452 -1.858,0.577 -2.875,0.055c-0.897,-0.462 -1.155,-0.956 -1.451,-1.957c-0.399,-1.346 2.821,-9.408 -0.835,-8.273c-0.575,0.177 -1.158,-0.213 -1.331,-0.758c-2.908,-9.095 -5.963,-4.561 -10.804,-6.223c-0.327,-0.113 -1.086,-1.404 -0.942,-1.318c-2.059,-1.365 -4.119,-2.732 -6.178,-4.097c-4.221,0.623 -6.854,2.923 -7.904,6.9c-0.234,0.681 -0.942,0.984 -1.592,0.647c-3.035,1.222 -6.068,2.443 -9.102,3.663c-0.256,0.758 -1.213,1.084 -1.813,0.479c-1.576,-1.592 -16.225,-10.505 -13,0.968c0.314,1.122 -1.02,1.701 -1.812,1.056c-2.859,-0.104 -5.714,-0.208 -8.573,-0.311c-0.992,0.659 -1.888,-0.589 -1.482,-1.485c2.635,-5.827 -9.947,-12.256 -13.119,-5.147c-0.23,0.513 -1.035,0.686 -1.483,0.387c-2.746,1.734 -5.494,3.464 -8.239,5.195c0.231,1.096 -0.984,1.754 -1.814,1.056c-3.992,-0.686 -6.122,0.13 -6.389,2.448c-0.059,0.496 -0.182,0.979 -0.366,1.45c-0.172,0.082 -0.243,0.528 -0.499,0.648c-1.232,0.58 -2.306,0.582 -3.584,0.99c-1.118,0.417 -2.233,0.833 -3.349,1.25c-1.698,6.07 -0.405,10.047 3.875,11.934c0.677,0.398 0.735,1.49 0,1.873c0.273,1.732 0.547,3.464 0.82,5.195c1.372,0.253 0.789,2.345 -0.576,2.092Z" style="fill:#fff;fill-rule:nonzero;"/><path d="M274.4,694.476c12.72,-7.222 27.46,-7.661 40.614,-1.284c1.255,0.609 0.157,2.48 -1.096,1.874c-12.443,-6.034 -26.4,-5.542 -38.423,1.284c-1.215,0.69 -2.309,-1.183 -1.095,-1.874Z" style="fill:#fff;fill-rule:nonzero;"/><path d="M272.299,690.868c14.293,-6.915 30.378,-6.603 44.375,0.913c1.23,0.658 0.136,2.532 -1.095,1.871c-13.269,-7.123 -28.622,-7.473 -42.185,-0.91c-1.251,0.606 -2.353,-1.265 -1.095,-1.874Z" style="fill:#fff;fill-rule:nonzero;"/><path d="M328.607,692.437c5.354,-5.322 12.13,-3.314 18.25,-0.273c6.863,3.414 8.945,8.991 8.556,16.378c-0.072,1.39 -2.243,1.398 -2.169,0c0.305,-5.801 -0.752,-10.625 -6.126,-13.785c-5.125,-3.012 -12.177,-5.562 -16.978,-0.787c-0.991,0.985 -2.527,-0.548 -1.533,-1.533Z" style="fill:#fff;fill-rule:nonzero;"/><path d="M327.122,690.135c4.407,-8.139 16.197,-3.494 22.64,-0.788c8.847,3.715 8.391,12.85 6.918,21.105c-0.245,1.371 -2.337,0.79 -2.093,-0.577c1.37,-7.663 1.789,-15.704 -6.91,-19.014c-5.16,-1.965 -15.123,-6.206 -18.683,0.367c-0.665,1.228 -2.537,0.135 -1.872,-1.093Z" style="fill:#fff;fill-rule:nonzero;"/><path d="M357.786,712.964c-1.566,-1.999 -1.904,-3.521 -1.089,-6.007c1.46,-4.447 4.488,-5.853 3.389,-11.491c-0.75,-3.85 -3.324,-7.03 -6.112,-9.622c-11.091,-10.311 -28.557,-12.286 -42.934,-13.841c-14.977,-1.618 -28.515,-1.431 -43.047,2.972c-6.832,2.07 -13.992,4.862 -19.298,9.819c-6.701,6.258 -5.729,14.081 -5.806,22.396c-0.013,1.395 -2.182,1.398 -2.169,0c0.058,-6.291 -0.941,-13.804 2.522,-19.404c3.38,-5.469 9.718,-9.204 15.441,-11.733c15.213,-6.722 30.738,-8.165 47.101,-6.729c14.966,1.313 31.934,2.837 44.83,11.242c4.582,2.986 9.145,7.064 11.004,12.374c0.718,2.058 1.067,4.382 0.789,6.561c-0.398,3.134 -5.22,9.207 -3.087,11.929c0.852,1.087 -0.674,2.633 -1.534,1.534Z" style="fill:#fff;fill-rule:nonzero;"/><path d="M241.958,691.12c-4.091,-1.45 -3.434,-6.223 -4.384,-9.932c-1.115,-4.368 -1.047,-3.05 1.223,-7.967c0.914,-1.978 0.918,-3.556 3.638,-3.384c2.496,0.158 2.827,1.941 5.32,-0.652c1.242,-1.294 1.262,-2.795 2.97,-3.878c3.146,-1.991 7.223,1.757 9.303,-0.286c1.864,-1.832 -0.822,-4.639 3.39,-4.964c2.174,-0.168 3.158,1.783 5.213,1.972c3.287,0.301 0.833,-0.925 3.405,-2.779c3.259,-2.347 5.602,1.518 8.515,0.665c2.67,-0.779 3.087,-3.83 6.468,-3.674c3.065,0.143 0.856,1.16 3.768,1.981c9.712,2.733 2.58,0.065 7.301,-1.304c1.766,-0.513 2.375,-0.453 4.125,-0.32c0.694,0.054 1.251,0.971 1.866,1.073c2.557,0.421 3.743,-0.616 5.76,-1.415c3.762,-1.491 4.67,-2.113 8.263,-0.113c1.903,1.058 1.21,2.876 4.74,2.373c1.204,-0.172 3.065,-1.764 4.443,-2.007c3.591,-0.635 6.127,0.726 8.249,3.523c1.562,2.057 1.404,2.904 3.702,5.566c0.577,0.666 1.554,0.658 1.961,1.515c1.645,3.478 -1.101,3.029 5.352,3.066c1.517,0.008 2.434,-0.473 3.957,0.203c3.886,1.728 1.372,3.391 8.094,4.068c1.946,0.197 2.624,-0.855 4.69,-0.174c4.175,1.373 4.63,4.474 4.124,8.112c-0.026,0.188 -1.519,2.776 -1.126,1.33c-1.737,6.383 0.933,2.61 0.759,5.926c-0.081,1.557 0.354,2.332 -0.684,3.729c-1.932,2.6 -5.007,1.707 -6.846,-0.333c-0.93,-1.035 0.598,-2.575 1.535,-1.534c0.521,-0.439 1.043,-0.875 1.563,-1.311c1.653,-0.502 2.004,-1.19 1.056,-2.067c0.003,-0.092 -0.638,-0.704 -0.613,-1.016c0.081,-1.076 -0.441,-1.458 -0.245,-2.334c0.18,-0.808 1.255,-1.439 1.409,-2.083c1.69,-7.058 -4.675,-5.483 -8.116,-5.476c-2.045,0.004 -2.497,-0.678 -4.091,-1.682c-2.765,-1.744 2.99,-0.971 -3.587,-2.01c-11.79,-1.858 -1.254,-0.404 -3.144,-0.344c-1.667,0.052 -2.225,1.414 -4.017,0.388c-1.208,-0.694 -0.936,-1.867 -1.518,-2.826c-0.945,-1.551 -3.879,-4.758 -5.48,-6.022c-0.207,-0.165 -0.074,-0.88 -0.254,-1.018c-0.248,-0.191 -11.208,-2.313 -11.361,-2.306c-0.55,0.027 -1.037,1.097 -1.702,0.941c-2.098,-0.487 -1.859,-1.595 -3.447,-2.305c-1.971,-0.877 -6.562,-1.038 -8.282,-0.428c-0.2,0.071 -0.592,0.692 -0.921,0.794c-0.787,0.246 -1.313,0.784 -2.188,1.007c-0.697,0.176 -0.871,-0.443 -1.518,-0.466c-2.302,-0.081 -5.055,-0.552 -7.508,0.269c-1.892,0.635 -1.289,2.235 -4.149,1.525c-1.38,-0.344 -2.641,-2.803 -3.685,-2.981c-2.753,-0.467 -4.564,2.464 -6.407,3.159c-1.875,0.706 -0.926,0.791 -3.616,0.589c-1.654,-0.125 6.998,-0.036 -3.508,-0.23c-1.096,-0.02 -2.19,-0.041 -3.286,-0.061c-0.164,0.421 -0.33,0.842 -0.495,1.262c-0.208,0.051 -0.354,0.687 -0.756,0.757c-2.225,0.384 -2.487,-0.684 -4.478,-1.066c-5.609,-1.074 -3.097,2.713 -5.912,4.468c-0.706,0.439 -1.526,0.072 -2.295,0.28c-0.185,0.051 -0.388,-0.154 -0.547,-0.147c-0.546,-0.349 -1.093,-0.696 -1.639,-1.044c-2.325,1.212 -4.649,2.423 -6.974,3.634c-1.439,1.143 -0.833,1.782 -2.747,2.621c-0.881,0.386 -1.899,-1.09 -2.619,-1.031c-2.59,0.211 -3.268,2.233 -4.007,4.053c-0.948,2.328 -0.403,1.77 0.54,4.472c0.559,1.611 0.889,7.153 2.025,7.557c1.308,0.462 0.745,2.561 -0.575,2.092Z" style="fill:#fff;fill-rule:nonzero;"/><path d="M243.453,672.355c-0.552,-12.561 7.494,-16.845 18.223,-21.603c12.043,-5.341 25.271,-8.017 38.445,-7.682c13.71,0.349 28.353,3.828 40.961,9.162c9.961,4.212 16.016,12.86 16.611,23.646c0.077,1.396 -2.092,1.391 -2.169,0c-0.753,-13.616 -10.191,-20.316 -22.206,-24.063c-10.812,-3.369 -21.814,-6.272 -33.197,-6.576c-10.447,-0.277 -20.946,1.388 -30.816,4.817c-4.899,1.701 -9.627,3.847 -14.134,6.408c-6.754,3.837 -9.909,7.682 -9.549,15.891c0.061,1.395 -2.108,1.392 -2.169,0Z" style="fill:#fff;fill-rule:nonzero;"/><path d="M262.273,736.65l0,0.419c0,1.395 -2.169,1.398 -2.169,0l0,-0.419c0,-1.396 2.169,-1.399 2.169,0Z" style="fill:#fff;fill-rule:nonzero;"/><path d="M274.567,747.273l0.419,0c1.395,0 1.398,2.169 0,2.169l-0.419,0c-1.394,0 -1.396,-2.169 0,-2.169Z" style="fill:#fff;fill-rule:nonzero;"/><path d="M308.854,744.764c1.395,0 1.398,2.169 0,2.169c-1.394,0 -1.397,-2.169 0,-2.169Z" style="fill:#fff;fill-rule:nonzero;"/><path d="M305.51,723.859c1.396,0 1.398,2.169 0,2.169c-1.396,0 -1.399,-2.169 0,-2.169Z" style="fill:#fff;fill-rule:nonzero;"/><path d="M274.567,722.604c1.396,0 1.398,2.169 0,2.169c-1.394,0 -1.396,-2.169 0,-2.169Z" style="fill:#fff;fill-rule:nonzero;"/><path d="M293.035,739.508c-0.14,-0.14 -0.279,-0.279 -0.417,-0.419c-0.989,-0.988 0.545,-2.522 1.532,-1.533c0.141,0.139 0.279,0.279 0.418,0.418c0.989,0.988 -0.543,2.522 -1.533,1.534Z" style="fill:#fff;fill-rule:nonzero;"/><path d="M297.148,754.381c1.395,0 1.396,2.169 0,2.169c-1.397,0 -1.399,-2.169 0,-2.169Z" style="fill:#fff;fill-rule:nonzero;"/><path d="M340.215,741.42c1.395,0 1.398,2.169 0,2.169c-1.397,0 -1.398,-2.169 0,-2.169Z" style="fill:#fff;fill-rule:nonzero;"/><path d="M334.609,725.361l0,0.418c0,1.395 -2.169,1.398 -2.169,0l0,-0.418c0,-1.397 2.169,-1.398 2.169,0Z" style="fill:#fff;fill-rule:nonzero;"/><path d="M325.163,737.238c1.395,0 1.396,2.169 0,2.169c-1.397,0 -1.399,-2.169 0,-2.169Z" style="fill:#fff;fill-rule:nonzero;"/><path d="M315.126,714.66c1.396,0 1.399,2.169 0,2.169c-1.395,0 -1.398,-2.169 0,-2.169Z" style="fill:#fff;fill-rule:nonzero;"/><path d="M291.224,718.184c-0.141,0.138 -0.278,0.279 -0.418,0.417c-0.989,0.988 -2.522,-0.545 -1.534,-1.534c0.139,-0.139 0.279,-0.279 0.418,-0.418c0.989,-0.987 2.523,0.546 1.534,1.535Z" style="fill:#fff;fill-rule:nonzero;"/><path d="M318.472,747.273c1.396,0 1.399,2.169 0,2.169c-1.396,0 -1.398,-2.169 0,-2.169Z" style="fill:#fff;fill-rule:nonzero;"/><path d="M273.313,736.82c1.397,0 1.398,2.169 0,2.169c-1.395,0 -1.398,-2.169 0,-2.169Z" style="fill:#fff;fill-rule:nonzero;"/><path d="M262.442,724.695c1.396,0 1.399,2.168 0,2.168c-1.395,0 -1.398,-2.168 0,-2.168Z" style="fill:#fff;fill-rule:nonzero;"/></g><g><path d="M264.681,214.116c19.991,-6.461 41.757,-5.784 61.669,0.692c16.284,5.297 37.408,14.949 39.57,34.361c0.83,7.436 -2.129,14.132 -9.951,15.661c-9.34,1.825 -18.924,-4.998 -27.255,-8.085c-11.182,-4.144 -22.923,-6.832 -34.803,-7.896c-9.662,-0.866 -21.026,1.191 -29.962,-3.337c-6.792,-3.442 -12.182,-13.105 -9.353,-20.7c2.483,-6.672 8.865,-10.255 15.225,-12.234c1.048,-0.326 1.496,1.317 0.452,1.641c-10.564,3.288 -18.368,12.173 -12.083,23.533c6.122,11.066 21.059,8.459 31.617,9.088c10.347,0.616 20.631,2.411 30.572,5.341c4.608,1.357 9.14,2.962 13.578,4.799c4.987,2.064 9.866,4.975 15.197,6.034c8.513,1.691 15.512,-2.946 15.205,-12.045c-0.178,-5.293 -2.41,-10.438 -5.504,-14.663c-7.12,-9.721 -19.149,-14.982 -30.165,-18.91c-20.372,-7.264 -42.899,-8.316 -63.556,-1.639c-1.045,0.338 -1.492,-1.305 -0.453,-1.641Z" style="fill:#fff;fill-rule:nonzero;"/><path d="M254.809,228.81c-6.526,0.108 -15.138,2.88 -18.57,8.782c-5.653,9.72 4.69,16.433 13.315,16.59c7.904,0.144 15.795,-1.105 23.739,-0.905c7.113,0.18 14.213,0.871 21.233,2.021c14.633,2.4 28.908,6.898 42.263,13.343c7.608,3.671 18.692,10.428 27.276,5.433c6.277,-3.652 5.03,-13.109 0.024,-17.175c-0.85,-0.69 0.36,-1.888 1.204,-1.204c6.092,4.95 6.755,16.282 -0.928,20.116c-5.833,2.913 -13.426,1.16 -19.097,-1.177c-8.102,-3.338 -15.676,-7.679 -23.969,-10.651c-17.284,-6.195 -35.676,-9.303 -54.04,-9.041c-10.034,0.144 -30.046,5.243 -33.71,-8.696c-3.207,-12.201 11.22,-18.972 21.26,-19.138c1.095,-0.018 1.096,1.684 0,1.702Z" style="fill:#fff;fill-rule:nonzero;"/><path d="M250.46,254.597c5.298,8.366 15.645,8.752 24.52,8.992c8.533,0.229 17.09,0.696 25.521,2.109c8.296,1.388 16.495,3.725 23.978,7.625c5.974,3.115 24.438,15.814 27.885,3.156c0.288,-1.056 1.93,-0.607 1.641,0.452c-1.941,7.128 -10.24,7.152 -16.176,5.279c-4.824,-1.521 -8.944,-4.582 -13.356,-6.958c-5.877,-3.163 -12.226,-5.334 -18.726,-6.802c-11.973,-2.705 -24.005,-2.624 -36.171,-3.3c-7.898,-0.438 -16.138,-2.669 -20.584,-9.694c-0.588,-0.928 0.884,-1.783 1.468,-0.859Z" style="fill:#fff;fill-rule:nonzero;"/><path d="M248.992,228.353c4.945,-6.887 10.072,-11.743 18.066,-14.98c1.016,-0.411 1.458,1.234 0.454,1.64c-7.525,3.047 -12.394,7.713 -17.052,14.199c-0.632,0.881 -2.109,0.033 -1.468,-0.859Z" style="fill:#fff;fill-rule:nonzero;"/><path d="M283.98,238.493c-0.539,-5.739 -2.725,-10.97 -6.43,-15.388c-0.699,-0.834 0.499,-2.044 1.203,-1.203c4.01,4.782 6.346,10.375 6.929,16.591c0.102,1.09 -1.601,1.082 -1.702,0Z" style="fill:#fff;fill-rule:nonzero;"/><path d="M324.287,245.06c-0.475,-6.953 -2.927,-13.353 -7.252,-18.824c-0.671,-0.85 0.525,-2.063 1.204,-1.204c4.621,5.846 7.243,12.589 7.749,20.028c0.075,1.092 -1.628,1.088 -1.701,0Z" style="fill:#fff;fill-rule:nonzero;"/><path d="M340.802,251.865c-1.736,-7.677 -4.581,-14.87 -8.577,-21.656c-0.556,-0.945 0.915,-1.802 1.471,-0.858c4.067,6.909 6.979,14.24 8.747,22.061c0.241,1.067 -1.4,1.523 -1.641,0.453Z" style="fill:#fff;fill-rule:nonzero;"/><path d="M263.312,249.091c1.803,2.496 4.965,3.272 7.804,3.957c1.064,0.257 0.613,1.898 -0.453,1.641c-3.351,-0.808 -6.716,-1.825 -8.821,-4.74c-0.643,-0.889 0.833,-1.74 1.47,-0.858Z" style="fill:#fff;fill-rule:nonzero;"/><path d="M278.159,250.831c1.305,1.409 2.84,2.477 4.606,3.228c1.005,0.428 0.139,1.895 -0.859,1.471c-1.888,-0.804 -3.558,-1.992 -4.951,-3.496c-0.743,-0.802 0.457,-2.009 1.204,-1.203Z" style="fill:#fff;fill-rule:nonzero;"/><path d="M292.701,251.74c1.912,1.93 4.137,3.451 6.654,4.481c1.001,0.408 0.563,2.055 -0.451,1.641c-2.798,-1.145 -5.278,-2.768 -7.407,-4.918c-0.77,-0.78 0.431,-1.983 1.204,-1.204Z" style="fill:#fff;fill-rule:nonzero;"/><path d="M308.043,253.775c1.559,2.528 3.702,4.518 6.322,5.913c0.966,0.514 0.107,1.983 -0.859,1.469c-2.87,-1.526 -5.227,-3.757 -6.931,-6.522c-0.578,-0.934 0.894,-1.79 1.468,-0.86Z" style="fill:#fff;fill-rule:nonzero;"/><path d="M321.246,257.233c1.28,2.356 2.852,4.488 4.731,6.4c0.768,0.783 -0.434,1.986 -1.203,1.204c-1.977,-2.012 -3.651,-4.267 -4.997,-6.744c-0.523,-0.964 0.946,-1.824 1.469,-0.86Z" style="fill:#fff;fill-rule:nonzero;"/><path d="M335.687,263.121c1.63,2.939 3.709,5.514 6.23,7.736c0.822,0.726 -0.385,1.925 -1.204,1.203c-2.622,-2.311 -4.799,-5.023 -6.496,-8.079c-0.533,-0.959 0.937,-1.818 1.47,-0.86Z" style="fill:#fff;fill-rule:nonzero;"/><path d="M297.602,222.973c5.016,4.612 7.785,10.828 7.891,17.639c0.018,1.096 -1.683,1.096 -1.702,0c-0.101,-6.395 -2.685,-12.108 -7.391,-16.436c-0.808,-0.743 0.397,-1.944 1.202,-1.203Z" style="fill:#fff;fill-rule:nonzero;"/></g><g><path d="M244.67,126.763c4.678,9.193 15.634,15.654 24.742,19.852c9.822,4.531 20.691,6.921 31.507,6.861c11.781,-0.063 22.079,-3.882 32.647,-8.758c9.979,-4.602 21.922,-11.882 21.073,-24.534c-1.633,-24.379 -40.124,-25.49 -57.639,-25.049c-17.315,0.438 -59.254,5.273 -52.614,31.53c0.344,1.353 -1.748,1.93 -2.091,0.576c-4.844,-19.154 15.334,-27.916 30.639,-31.463c20.327,-4.709 45.745,-4.989 65.394,2.815c14.511,5.765 24.676,21.41 13.946,35.537c-5.726,7.538 -14.88,11.343 -23.3,14.997c-9.842,4.271 -19.633,6.784 -30.418,6.492c-10.431,-0.282 -20.765,-2.776 -30.24,-7.131c-9.368,-4.306 -20.693,-11.145 -25.518,-20.631c-0.632,-1.24 1.238,-2.339 1.872,-1.094Z" style="fill:#fff;fill-rule:nonzero;"/><path d="M241.946,119.088c-5.461,-1.008 -6.156,-6.647 -1.339,-9.16l0,1.872c-6.725,-3.962 -11.905,-12.627 -2.008,-16.532c0.811,-0.32 2.237,-0.352 2.942,-0.79c1.428,-0.889 0.881,-1.251 1.775,-2.76c1.132,-1.913 -0.128,-2.09 2.106,-3.629c2.871,-1.979 5.862,-0.319 8.125,1.584c-0.604,0.352 -1.209,0.703 -1.812,1.054c-0.695,-3.275 0.01,-6.671 3.111,-8.469c2.666,-1.545 4.42,0.375 6.645,-0.289c1.667,-0.494 2.571,-2.621 4.297,-3.565c3.732,-2.038 6.218,-0.411 8.763,2.257c3.201,3.353 6.249,5.154 3.99,10.152c-0.494,-0.496 -0.99,-0.991 -1.484,-1.484c3.847,-2.556 7.651,-2.24 11.2,0.649c-0.605,0.352 -1.209,0.703 -1.813,1.054c-1.026,-3.646 0.362,-7.183 4.291,-8.347c4.934,-1.463 9.134,2.036 12.334,5.27c-0.605,0.16 -1.208,0.319 -1.812,0.479c1.095,-3.252 3.402,-5.612 6.936,-6.123c1.323,-0.193 3.336,0.741 4.352,0.092c1.302,-0.834 2.14,-3.615 3.609,-4.722c2.845,-2.139 6.604,-2.678 9.853,-1.078c1.89,0.932 2.558,3.397 3.991,4.199c1.865,1.047 4.57,0.293 6.764,1.41c2.49,1.268 4.049,4.016 5.752,5.58c0.966,0.888 1.966,0.852 2.675,2.217c0.967,1.861 -0.586,3.097 -0.206,4.835c0.682,3.126 2.398,0.176 4.292,-0.781c1.129,-0.57 2.218,-0.794 3.499,-0.412c3.494,1.04 3.53,4.516 2.249,7.218c-0.408,-0.531 -0.816,-1.061 -1.227,-1.592c5.267,-1.971 9.045,0.486 10.816,5.5c0.915,2.594 0.49,2.318 2.374,4.353c0.492,0.53 1.14,0.935 1.585,1.525c1.215,1.605 1.773,3.566 1.196,5.55c-0.641,2.21 -1.67,2.492 -1.88,4.46c-0.24,2.262 1.255,2.613 -0.664,4.478c-4.599,4.473 -9.457,-3.398 -11.785,-5.95c-0.939,-1.028 0.59,-2.566 1.535,-1.532c0.522,0.496 0.999,1.031 1.432,1.602c1.152,2.548 3.202,2.663 6.154,0.348c-0.311,-0.435 -0.118,-1.269 0.387,-1.483c9.955,-4.214 -1.242,-7.473 -2.264,-9.289c-0.097,-0.168 -0.148,-0.351 -0.149,-0.546c0.305,-3.964 -2.416,-6.272 -8.158,-6.925c-0.972,0.363 -1.589,-0.826 -1.226,-1.593c-2.302,-3.054 -3.914,-3.539 -4.837,-1.455c-0.195,0.373 -0.427,0.723 -0.688,1.048c-0.479,0.193 -0.782,0.803 -1.261,1.002c-1.082,0.453 -1.858,0.577 -2.875,0.055c-0.897,-0.461 -1.155,-0.956 -1.451,-1.956c-0.399,-1.346 2.821,-9.409 -0.835,-8.274c-0.575,0.178 -1.158,-0.212 -1.331,-0.757c-2.908,-9.095 -5.963,-4.561 -10.804,-6.224c-0.327,-0.113 -1.086,-1.404 -0.942,-1.317c-2.059,-1.365 -4.119,-2.733 -6.178,-4.098c-4.221,0.623 -6.854,2.924 -7.904,6.9c-0.234,0.681 -0.942,0.985 -1.592,0.648c-3.035,1.222 -6.068,2.442 -9.102,3.663c-0.256,0.757 -1.213,1.084 -1.813,0.478c-1.576,-1.592 -16.225,-10.505 -13,0.969c0.314,1.122 -1.02,1.7 -1.812,1.055c-2.859,-0.104 -5.714,-0.208 -8.573,-0.31c-0.992,0.659 -1.888,-0.589 -1.482,-1.485c2.635,-5.827 -9.947,-12.256 -13.119,-5.148c-0.23,0.513 -1.035,0.687 -1.483,0.388c-2.746,1.733 -5.494,3.464 -8.239,5.195c0.231,1.096 -0.984,1.754 -1.814,1.055c-3.992,-0.685 -6.122,0.131 -6.389,2.448c-0.059,0.496 -0.182,0.979 -0.366,1.451c-0.172,0.082 -0.243,0.527 -0.499,0.647c-1.232,0.58 -2.306,0.583 -3.584,0.991c-1.118,0.416 -2.233,0.833 -3.349,1.249c-1.698,6.07 -0.405,10.048 3.875,11.935c0.677,0.397 0.735,1.489 0,1.872c0.273,1.733 0.547,3.465 0.82,5.196c1.372,0.253 0.789,2.345 -0.576,2.092Z" style="fill:#fff;fill-rule:nonzero;"/><path d="M274.4,82.817c12.72,-7.223 27.46,-7.661 40.614,-1.284c1.255,0.608 0.157,2.479 -1.096,1.874c-12.443,-6.034 -26.4,-5.543 -38.423,1.284c-1.215,0.689 -2.309,-1.183 -1.095,-1.874Z" style="fill:#fff;fill-rule:nonzero;"/><path d="M272.299,79.209c14.293,-6.916 30.378,-6.604 44.375,0.912c1.23,0.658 0.136,2.532 -1.095,1.871c-13.269,-7.122 -28.622,-7.472 -42.185,-0.909c-1.251,0.606 -2.353,-1.265 -1.095,-1.874Z" style="fill:#fff;fill-rule:nonzero;"/><path d="M328.607,80.778c5.354,-5.323 12.13,-3.314 18.25,-0.273c6.863,3.413 8.945,8.99 8.556,16.378c-0.072,1.389 -2.243,1.398 -2.169,0c0.305,-5.801 -0.752,-10.625 -6.126,-13.786c-5.125,-3.012 -12.177,-5.561 -16.978,-0.786c-0.991,0.984 -2.527,-0.548 -1.533,-1.533Z" style="fill:#fff;fill-rule:nonzero;"/><path d="M327.122,78.476c4.407,-8.139 16.197,-3.495 22.64,-0.788c8.847,3.714 8.391,12.85 6.918,21.105c-0.245,1.37 -2.337,0.789 -2.093,-0.577c1.37,-7.664 1.789,-15.704 -6.91,-19.014c-5.16,-1.965 -15.123,-6.206 -18.683,0.367c-0.665,1.228 -2.537,0.135 -1.872,-1.093Z" style="fill:#fff;fill-rule:nonzero;"/><path d="M357.786,101.304c-1.566,-1.998 -1.904,-3.521 -1.089,-6.006c1.46,-4.448 4.488,-5.853 3.389,-11.491c-0.75,-3.85 -3.324,-7.03 -6.112,-9.623c-11.091,-10.311 -28.557,-12.286 -42.934,-13.84c-14.977,-1.618 -28.515,-1.432 -43.047,2.971c-6.832,2.071 -13.992,4.863 -19.298,9.82c-6.701,6.258 -5.729,14.08 -5.806,22.396c-0.013,1.395 -2.182,1.398 -2.169,0c0.058,-6.292 -0.941,-13.805 2.522,-19.405c3.38,-5.468 9.718,-9.203 15.441,-11.732c15.213,-6.722 30.738,-8.165 47.101,-6.729c14.966,1.313 31.934,2.837 44.83,11.242c4.582,2.986 9.145,7.063 11.004,12.374c0.718,2.058 1.067,4.381 0.789,6.56c-0.398,3.135 -5.22,9.208 -3.087,11.929c0.852,1.088 -0.674,2.633 -1.534,1.534Z" style="fill:#fff;fill-rule:nonzero;"/><path d="M241.958,79.461c-4.091,-1.451 -3.434,-6.224 -4.384,-9.933c-1.115,-4.368 -1.047,-3.049 1.223,-7.967c0.914,-1.978 0.918,-3.555 3.638,-3.383c2.496,0.158 2.827,1.94 5.32,-0.652c1.242,-1.294 1.262,-2.795 2.97,-3.878c3.146,-1.991 7.223,1.757 9.303,-0.286c1.864,-1.832 -0.822,-4.639 3.39,-4.964c2.174,-0.168 3.158,1.782 5.213,1.972c3.287,0.301 0.833,-0.926 3.405,-2.779c3.259,-2.347 5.602,1.518 8.515,0.665c2.67,-0.779 3.087,-3.83 6.468,-3.674c3.065,0.143 0.856,1.159 3.768,1.981c9.712,2.733 2.58,0.065 7.301,-1.304c1.766,-0.514 2.375,-0.453 4.125,-0.32c0.694,0.053 1.251,0.97 1.866,1.073c2.557,0.421 3.743,-0.616 5.76,-1.416c3.762,-1.49 4.67,-2.112 8.263,-0.113c1.903,1.059 1.21,2.876 4.74,2.373c1.204,-0.172 3.065,-1.764 4.443,-2.007c3.591,-0.634 6.127,0.726 8.249,3.524c1.562,2.056 1.404,2.904 3.702,5.565c0.577,0.667 1.554,0.658 1.961,1.516c1.645,3.477 -1.101,3.029 5.352,3.065c1.517,0.009 2.434,-0.473 3.957,0.204c3.886,1.728 1.372,3.391 8.094,4.067c1.946,0.197 2.624,-0.854 4.69,-0.173c4.175,1.372 4.63,4.474 4.124,8.112c-0.026,0.188 -1.519,2.776 -1.126,1.33c-1.737,6.382 0.933,2.61 0.759,5.925c-0.081,1.558 0.354,2.333 -0.684,3.729c-1.932,2.6 -5.007,1.708 -6.846,-0.332c-0.93,-1.035 0.598,-2.575 1.535,-1.534c0.521,-0.44 1.043,-0.875 1.563,-1.312c1.653,-0.502 2.004,-1.19 1.056,-2.066c0.003,-0.093 -0.638,-0.704 -0.613,-1.017c0.081,-1.075 -0.441,-1.457 -0.245,-2.333c0.18,-0.809 1.255,-1.439 1.409,-2.084c1.69,-7.057 -4.675,-5.483 -8.116,-5.476c-2.045,0.005 -2.497,-0.678 -4.091,-1.681c-2.765,-1.744 2.99,-0.972 -3.587,-2.01c-11.79,-1.858 -1.254,-0.405 -3.144,-0.344c-1.667,0.052 -2.225,1.414 -4.017,0.387c-1.208,-0.694 -0.936,-1.866 -1.518,-2.825c-0.945,-1.552 -3.879,-4.759 -5.48,-6.022c-0.207,-0.165 -0.074,-0.881 -0.254,-1.018c-0.248,-0.191 -11.208,-2.314 -11.361,-2.307c-0.55,0.028 -1.037,1.098 -1.702,0.942c-2.098,-0.488 -1.859,-1.595 -3.447,-2.305c-1.971,-0.878 -6.562,-1.038 -8.282,-0.428c-0.2,0.071 -0.592,0.691 -0.921,0.794c-0.787,0.246 -1.313,0.783 -2.188,1.006c-0.697,0.177 -0.871,-0.442 -1.518,-0.465c-2.302,-0.081 -5.055,-0.553 -7.508,0.268c-1.892,0.635 -1.289,2.236 -4.149,1.526c-1.38,-0.344 -2.641,-2.804 -3.685,-2.982c-2.753,-0.467 -4.564,2.464 -6.407,3.16c-1.875,0.705 -0.926,0.791 -3.616,0.588c-1.654,-0.124 6.998,-0.036 -3.508,-0.23c-1.096,-0.02 -2.19,-0.04 -3.286,-0.06c-0.164,0.42 -0.33,0.841 -0.495,1.262c-0.208,0.051 -0.354,0.687 -0.756,0.756c-2.225,0.385 -2.487,-0.684 -4.478,-1.065c-5.609,-1.075 -3.097,2.712 -5.912,4.467c-0.706,0.44 -1.526,0.073 -2.295,0.281c-0.185,0.051 -0.388,-0.155 -0.547,-0.147c-0.546,-0.349 -1.093,-0.696 -1.639,-1.044c-2.325,1.211 -4.649,2.423 -6.974,3.633c-1.439,1.144 -0.833,1.783 -2.747,2.622c-0.881,0.386 -1.899,-1.091 -2.619,-1.031c-2.59,0.211 -3.268,2.232 -4.007,4.053c-0.948,2.328 -0.403,1.769 0.54,4.472c0.559,1.611 0.889,7.153 2.025,7.556c1.308,0.463 0.745,2.561 -0.575,2.093Z" style="fill:#fff;fill-rule:nonzero;"/><path d="M243.453,60.695c-0.552,-12.561 7.494,-16.845 18.223,-21.602c12.043,-5.341 25.271,-8.018 38.445,-7.682c13.71,0.348 28.353,3.827 40.961,9.161c9.961,4.212 16.016,12.86 16.611,23.647c0.077,1.395 -2.092,1.391 -2.169,0c-0.753,-13.616 -10.191,-20.317 -22.206,-24.063c-10.812,-3.369 -21.814,-6.273 -33.197,-6.576c-10.447,-0.278 -20.946,1.388 -30.816,4.816c-4.899,1.702 -9.627,3.848 -14.134,6.408c-6.754,3.838 -9.909,7.683 -9.549,15.891c0.061,1.396 -2.108,1.393 -2.169,0Z" style="fill:#fff;fill-rule:nonzero;"/><path d="M262.273,124.99l0,0.419c0,1.396 -2.169,1.399 -2.169,0l0,-0.419c0,-1.395 2.169,-1.398 2.169,0Z" style="fill:#fff;fill-rule:nonzero;"/><path d="M274.567,135.613l0.419,0c1.395,0 1.398,2.169 0,2.169l-0.419,0c-1.394,0 -1.396,-2.169 0,-2.169Z" style="fill:#fff;fill-rule:nonzero;"/><path d="M308.854,133.105c1.395,0 1.398,2.169 0,2.169c-1.394,0 -1.397,-2.169 0,-2.169Z" style="fill:#fff;fill-rule:nonzero;"/><path d="M305.51,112.199c1.396,0 1.398,2.169 0,2.169c-1.396,0 -1.399,-2.169 0,-2.169Z" style="fill:#fff;fill-rule:nonzero;"/><path d="M274.567,110.944c1.396,0 1.398,2.169 0,2.169c-1.394,0 -1.396,-2.169 0,-2.169Z" style="fill:#fff;fill-rule:nonzero;"/><path d="M293.035,127.849c-0.14,-0.14 -0.279,-0.279 -0.417,-0.42c-0.989,-0.987 0.545,-2.521 1.532,-1.532c0.141,0.139 0.279,0.279 0.418,0.418c0.989,0.987 -0.543,2.521 -1.533,1.534Z" style="fill:#fff;fill-rule:nonzero;"/><path d="M297.148,142.722c1.395,0 1.396,2.169 0,2.169c-1.397,0 -1.399,-2.169 0,-2.169Z" style="fill:#fff;fill-rule:nonzero;"/><path d="M340.215,129.76c1.395,0 1.398,2.169 0,2.169c-1.397,0 -1.398,-2.169 0,-2.169Z" style="fill:#fff;fill-rule:nonzero;"/><path d="M334.609,113.702l0,0.418c0,1.395 -2.169,1.398 -2.169,0l0,-0.418c0,-1.397 2.169,-1.398 2.169,0Z" style="fill:#fff;fill-rule:nonzero;"/><path d="M325.163,125.579c1.395,0 1.396,2.169 0,2.169c-1.397,0 -1.399,-2.169 0,-2.169Z" style="fill:#fff;fill-rule:nonzero;"/><path d="M315.126,103c1.396,0 1.399,2.169 0,2.169c-1.395,0 -1.398,-2.169 0,-2.169Z" style="fill:#fff;fill-rule:nonzero;"/><path d="M291.224,106.524c-0.141,0.139 -0.278,0.279 -0.418,0.418c-0.989,0.988 -2.522,-0.545 -1.534,-1.534c0.139,-0.139 0.279,-0.279 0.418,-0.418c0.989,-0.988 2.523,0.545 1.534,1.534Z" style="fill:#fff;fill-rule:nonzero;"/><path d="M318.472,135.613c1.396,0 1.399,2.169 0,2.169c-1.396,0 -1.398,-2.169 0,-2.169Z" style="fill:#fff;fill-rule:nonzero;"/><path d="M273.313,125.161c1.397,0 1.398,2.169 0,2.169c-1.395,0 -1.398,-2.169 0,-2.169Z" style="fill:#fff;fill-rule:nonzero;"/><path d="M262.442,113.035c1.396,0 1.399,2.169 0,2.169c-1.395,0 -1.398,-2.169 0,-2.169Z" style="fill:#fff;fill-rule:nonzero;"/></g><g><path d="M358.418,432.593c-4.677,9.193 -15.633,15.653 -24.741,19.852c-9.822,4.53 -20.691,6.92 -31.507,6.861c-11.781,-0.063 -22.079,-3.882 -32.648,-8.758c-9.978,-4.602 -21.921,-11.883 -21.073,-24.534c1.634,-24.379 40.125,-25.491 57.64,-25.05c17.315,0.438 59.254,5.274 52.614,31.53c-0.344,1.354 1.748,1.931 2.091,0.577c4.844,-19.154 -15.334,-27.916 -30.639,-31.463c-20.327,-4.71 -45.745,-4.989 -65.394,2.815c-14.512,5.765 -24.676,21.41 -13.946,35.537c5.726,7.537 14.88,11.343 23.3,14.997c9.842,4.271 19.632,6.784 30.418,6.492c10.431,-0.282 20.765,-2.776 30.24,-7.131c9.368,-4.306 20.693,-11.146 25.518,-20.631c0.632,-1.24 -1.238,-2.339 -1.873,-1.094Z" style="fill:#fff;fill-rule:nonzero;"/><path d="M361.142,424.918c5.462,-1.008 6.157,-6.647 1.339,-9.16l0,1.872c6.725,-3.962 11.906,-12.627 2.009,-16.533c-0.811,-0.319 -2.237,-0.351 -2.943,-0.789c-1.427,-0.889 -0.88,-1.251 -1.774,-2.761c-1.132,-1.912 0.127,-2.089 -2.107,-3.629c-2.87,-1.978 -5.861,-0.318 -8.124,1.585c0.604,0.351 1.209,0.703 1.811,1.054c0.696,-3.275 -0.01,-6.672 -3.11,-8.469c-2.666,-1.546 -4.42,0.375 -6.645,-0.289c-1.667,-0.494 -2.571,-2.621 -4.298,-3.566c-3.731,-2.037 -6.217,-0.41 -8.762,2.257c-3.201,3.354 -6.249,5.155 -3.991,10.152c0.495,-0.496 0.991,-0.99 1.485,-1.483c-3.847,-2.557 -7.652,-2.24 -11.2,0.649c0.604,0.351 1.209,0.703 1.813,1.054c1.025,-3.647 -0.363,-7.183 -4.291,-8.347c-4.934,-1.464 -9.134,2.036 -12.334,5.27c0.604,0.159 1.207,0.318 1.812,0.479c-1.095,-3.252 -3.403,-5.612 -6.936,-6.124c-1.323,-0.192 -3.336,0.742 -4.353,0.093c-1.301,-0.835 -2.14,-3.615 -3.609,-4.723c-2.844,-2.138 -6.603,-2.677 -9.852,-1.077c-1.89,0.931 -2.558,3.397 -3.991,4.199c-1.865,1.047 -4.571,0.292 -6.764,1.41c-2.49,1.268 -4.049,4.015 -5.752,5.58c-0.966,0.888 -1.967,0.851 -2.675,2.216c-0.967,1.861 0.586,3.098 0.205,4.836c-0.681,3.126 -2.397,0.176 -4.291,-0.781c-1.13,-0.57 -2.218,-0.794 -3.499,-0.412c-3.494,1.039 -3.53,4.515 -2.249,7.218c0.408,-0.531 0.816,-1.062 1.226,-1.592c-5.266,-1.971 -9.044,0.486 -10.815,5.5c-0.916,2.594 -0.49,2.318 -2.375,4.352c-0.491,0.531 -1.139,0.936 -1.584,1.526c-1.215,1.605 -1.773,3.566 -1.196,5.549c0.641,2.211 1.67,2.493 1.88,4.461c0.24,2.261 -1.255,2.613 0.663,4.478c4.6,4.472 9.458,-3.398 11.786,-5.95c0.939,-1.028 -0.59,-2.566 -1.535,-1.533c-0.522,0.496 -1,1.031 -1.432,1.603c-1.152,2.547 -3.203,2.663 -6.154,0.348c0.311,-0.435 0.117,-1.27 -0.387,-1.484c-9.956,-4.213 1.242,-7.472 2.264,-9.288c0.097,-0.168 0.148,-0.352 0.149,-0.547c-0.305,-3.963 2.416,-6.271 8.158,-6.924c0.972,0.363 1.589,-0.826 1.226,-1.594c2.302,-3.054 3.914,-3.538 4.837,-1.454c0.195,0.373 0.426,0.723 0.688,1.048c0.479,0.192 0.782,0.802 1.261,1.002c1.081,0.453 1.858,0.577 2.874,0.055c0.898,-0.461 1.156,-0.956 1.452,-1.956c0.399,-1.347 -2.821,-9.409 0.834,-8.274c0.576,0.178 1.159,-0.213 1.332,-0.758c2.908,-9.095 5.963,-4.56 10.804,-6.223c0.327,-0.113 1.086,-1.404 0.941,-1.317c2.059,-1.365 4.12,-2.733 6.179,-4.098c4.22,0.623 6.854,2.924 7.903,6.9c0.235,0.681 0.943,0.985 1.592,0.648c3.035,1.222 6.069,2.442 9.102,3.662c0.256,0.758 1.214,1.085 1.814,0.479c1.576,-1.592 16.224,-10.505 13,0.969c-0.314,1.122 1.019,1.7 1.812,1.055c2.858,-0.104 5.714,-0.208 8.573,-0.311c0.992,0.66 1.888,-0.588 1.482,-1.485c-2.635,-5.827 9.946,-12.255 13.119,-5.147c0.23,0.513 1.035,0.687 1.483,0.387c2.746,1.734 5.493,3.465 8.239,5.196c-0.231,1.096 0.983,1.753 1.813,1.055c3.993,-0.685 6.123,0.13 6.39,2.448c0.059,0.496 0.182,0.979 0.366,1.45c0.172,0.083 0.243,0.528 0.499,0.648c1.232,0.58 2.306,0.583 3.584,0.991c1.118,0.416 2.233,0.832 3.349,1.249c1.697,6.07 0.405,10.048 -3.875,11.935c-0.677,0.397 -0.735,1.489 0,1.872c-0.273,1.732 -0.547,3.464 -0.82,5.195c-1.372,0.253 -0.79,2.346 0.575,2.093Z" style="fill:#fff;fill-rule:nonzero;"/><path d="M328.688,388.646c-12.719,-7.222 -27.459,-7.66 -40.613,-1.284c-1.255,0.609 -0.157,2.48 1.096,1.874c12.442,-6.034 26.4,-5.542 38.423,1.284c1.214,0.69 2.309,-1.183 1.094,-1.874Z" style="fill:#fff;fill-rule:nonzero;"/><path d="M330.789,385.039c-14.293,-6.916 -30.377,-6.604 -44.374,0.912c-1.23,0.658 -0.136,2.532 1.095,1.871c13.269,-7.123 28.622,-7.472 42.185,-0.909c1.251,0.605 2.352,-1.266 1.094,-1.874Z" style="fill:#fff;fill-rule:nonzero;"/><path d="M274.482,386.608c-5.354,-5.323 -12.13,-3.315 -18.251,-0.274c-6.862,3.414 -8.944,8.991 -8.555,16.378c0.072,1.39 2.242,1.399 2.169,0c-0.305,-5.801 0.752,-10.624 6.126,-13.785c5.124,-3.012 12.176,-5.561 16.978,-0.787c0.991,0.985 2.526,-0.548 1.533,-1.532Z" style="fill:#fff;fill-rule:nonzero;"/><path d="M275.967,384.306c-4.407,-8.14 -16.197,-3.495 -22.641,-0.788c-8.846,3.714 -8.39,12.85 -6.917,21.104c0.244,1.371 2.337,0.79 2.092,-0.576c-1.369,-7.664 -1.788,-15.705 6.91,-19.015c5.161,-1.965 15.124,-6.205 18.683,0.368c0.666,1.227 2.538,0.134 1.873,-1.093Z" style="fill:#fff;fill-rule:nonzero;"/><path d="M245.303,407.134c1.566,-1.998 1.904,-3.521 1.089,-6.006c-1.461,-4.448 -4.488,-5.854 -3.389,-11.491c0.75,-3.851 3.324,-7.03 6.111,-9.623c11.092,-10.311 28.558,-12.286 42.935,-13.84c14.977,-1.618 28.515,-1.432 43.046,2.971c6.832,2.071 13.993,4.863 19.299,9.819c6.701,6.258 5.729,14.081 5.806,22.396c0.013,1.396 2.182,1.399 2.169,0c-0.058,-6.291 0.941,-13.804 -2.522,-19.404c-3.381,-5.469 -9.718,-9.203 -15.441,-11.732c-15.213,-6.722 -30.738,-8.165 -47.101,-6.73c-14.966,1.313 -31.934,2.837 -44.83,11.242c-4.582,2.986 -9.146,7.064 -11.004,12.375c-0.718,2.057 -1.067,4.381 -0.789,6.56c0.397,3.135 5.22,9.208 3.087,11.929c-0.852,1.087 0.674,2.633 1.534,1.534Z" style="fill:#fff;fill-rule:nonzero;"/><path d="M361.131,385.29c4.09,-1.45 3.434,-6.223 4.384,-9.932c1.115,-4.368 1.047,-3.049 -1.223,-7.967c-0.914,-1.978 -0.919,-3.555 -3.638,-3.383c-2.496,0.157 -2.827,1.94 -5.32,-0.652c-1.242,-1.295 -1.262,-2.795 -2.97,-3.878c-3.146,-1.992 -7.224,1.756 -9.303,-0.287c-1.864,-1.832 0.821,-4.638 -3.391,-4.964c-2.173,-0.167 -3.158,1.783 -5.212,1.973c-3.287,0.3 -0.833,-0.926 -3.405,-2.779c-3.26,-2.347 -5.602,1.518 -8.516,0.665c-2.669,-0.78 -3.087,-3.831 -6.467,-3.674c-3.066,0.143 -0.856,1.159 -3.768,1.98c-9.713,2.733 -2.58,0.066 -7.301,-1.304c-1.767,-0.513 -2.375,-0.452 -4.125,-0.319c-0.694,0.053 -1.251,0.97 -1.867,1.073c-2.556,0.42 -3.742,-0.616 -5.759,-1.416c-3.762,-1.491 -4.67,-2.113 -8.263,-0.113c-1.903,1.059 -1.211,2.876 -4.74,2.373c-1.205,-0.172 -3.066,-1.764 -4.444,-2.007c-3.59,-0.635 -6.126,0.726 -8.249,3.524c-1.561,2.056 -1.404,2.903 -3.701,5.565c-0.577,0.667 -1.555,0.658 -1.961,1.515c-1.645,3.478 1.101,3.03 -5.353,3.066c-1.516,0.009 -2.433,-0.473 -3.956,0.204c-3.886,1.728 -1.372,3.39 -8.094,4.067c-1.946,0.197 -2.624,-0.854 -4.691,-0.173c-4.174,1.372 -4.63,4.473 -4.123,8.111c0.026,0.188 1.519,2.777 1.126,1.331c1.736,6.382 -0.933,2.609 -0.759,5.925c0.081,1.557 -0.354,2.332 0.684,3.729c1.931,2.6 5.007,1.708 6.846,-0.332c0.93,-1.036 -0.598,-2.576 -1.535,-1.535c-0.521,-0.439 -1.043,-0.874 -1.563,-1.311c-1.653,-0.502 -2.004,-1.19 -1.056,-2.066c-0.003,-0.093 0.638,-0.704 0.613,-1.017c-0.081,-1.076 0.441,-1.457 0.245,-2.334c-0.18,-0.808 -1.256,-1.438 -1.409,-2.083c-1.69,-7.058 4.675,-5.483 8.116,-5.476c2.045,0.004 2.497,-0.678 4.091,-1.681c2.764,-1.744 -2.991,-0.972 3.587,-2.01c11.79,-1.858 1.254,-0.405 3.144,-0.344c1.667,0.052 2.225,1.414 4.016,0.387c1.209,-0.694 0.937,-1.867 1.519,-2.825c0.945,-1.552 3.879,-4.759 5.48,-6.023c0.206,-0.164 0.073,-0.88 0.254,-1.018c0.247,-0.19 11.208,-2.313 11.361,-2.306c0.549,0.028 1.037,1.098 1.702,0.941c2.098,-0.487 1.859,-1.594 3.447,-2.304c1.971,-0.878 6.561,-1.039 8.282,-0.428c0.2,0.071 0.591,0.691 0.921,0.793c0.787,0.246 1.313,0.784 2.188,1.007c0.697,0.176 0.87,-0.443 1.518,-0.466c2.302,-0.081 5.055,-0.552 7.507,0.269c1.893,0.635 1.29,2.236 4.15,1.526c1.38,-0.344 2.64,-2.804 3.684,-2.982c2.753,-0.467 4.565,2.464 6.407,3.16c1.876,0.705 0.927,0.79 3.617,0.588c1.654,-0.124 -6.999,-0.036 3.507,-0.23c1.096,-0.02 2.191,-0.04 3.287,-0.061c0.163,0.421 0.33,0.842 0.495,1.263c0.208,0.05 0.354,0.686 0.756,0.756c2.225,0.385 2.487,-0.684 4.478,-1.066c5.609,-1.074 3.097,2.713 5.912,4.468c0.706,0.44 1.526,0.072 2.295,0.281c0.185,0.05 0.387,-0.155 0.546,-0.148c0.547,-0.348 1.094,-0.695 1.64,-1.044c2.325,1.212 4.649,2.424 6.974,3.634c1.439,1.144 0.833,1.783 2.747,2.621c0.881,0.386 1.899,-1.09 2.619,-1.031c2.589,0.212 3.268,2.233 4.006,4.053c0.949,2.328 0.404,1.77 -0.539,4.473c-0.559,1.61 -0.889,7.153 -2.026,7.556c-1.307,0.463 -0.744,2.561 0.576,2.092Z" style="fill:#fff;fill-rule:nonzero;"/><path d="M359.636,366.525c0.552,-12.561 -7.495,-16.845 -18.223,-21.602c-12.044,-5.342 -25.271,-8.018 -38.445,-7.682c-13.71,0.348 -28.353,3.827 -40.962,9.161c-9.961,4.212 -16.015,12.86 -16.611,23.647c-0.076,1.395 2.093,1.391 2.169,0c0.754,-13.617 10.191,-20.317 22.207,-24.063c10.811,-3.369 21.813,-6.273 33.197,-6.577c10.447,-0.277 20.946,1.389 30.816,4.817c4.899,1.702 9.627,3.847 14.134,6.408c6.754,3.838 9.909,7.682 9.549,15.891c-0.061,1.395 2.108,1.392 2.169,0Z" style="fill:#fff;fill-rule:nonzero;"/><path d="M340.815,430.82l0,0.419c0,1.395 2.169,1.398 2.169,0l0,-0.419c0,-1.395 -2.169,-1.398 -2.169,0Z" style="fill:#fff;fill-rule:nonzero;"/><path d="M328.522,441.443l-0.419,0c-1.395,0 -1.398,2.169 0,2.169l0.419,0c1.394,0 1.395,-2.169 0,-2.169Z" style="fill:#fff;fill-rule:nonzero;"/><path d="M294.235,438.934c-1.396,0 -1.398,2.169 0,2.169c1.394,0 1.397,-2.169 0,-2.169Z" style="fill:#fff;fill-rule:nonzero;"/><path d="M297.579,418.029c-1.397,0 -1.398,2.169 0,2.169c1.396,0 1.398,-2.169 0,-2.169Z" style="fill:#fff;fill-rule:nonzero;"/><path d="M328.522,416.774c-1.397,0 -1.398,2.169 0,2.169c1.394,0 1.395,-2.169 0,-2.169Z" style="fill:#fff;fill-rule:nonzero;"/><path d="M310.053,433.678c0.141,-0.14 0.279,-0.279 0.418,-0.419c0.989,-0.987 -0.545,-2.522 -1.532,-1.533c-0.141,0.139 -0.28,0.28 -0.418,0.418c-0.989,0.988 0.543,2.522 1.532,1.534Z" style="fill:#fff;fill-rule:nonzero;"/><path d="M305.941,448.551c-1.395,0 -1.397,2.169 0,2.169c1.397,0 1.398,-2.169 0,-2.169Z" style="fill:#fff;fill-rule:nonzero;"/><path d="M262.874,435.59c-1.395,0 -1.398,2.169 0,2.169c1.397,0 1.398,-2.169 0,-2.169Z" style="fill:#fff;fill-rule:nonzero;"/><path d="M268.48,419.531l0,0.418c0,1.396 2.169,1.399 2.169,0l0,-0.418c0,-1.396 -2.169,-1.398 -2.169,0Z" style="fill:#fff;fill-rule:nonzero;"/><path d="M277.926,431.408c-1.395,0 -1.397,2.169 0,2.169c1.397,0 1.398,-2.169 0,-2.169Z" style="fill:#fff;fill-rule:nonzero;"/><path d="M287.962,408.83c-1.395,0 -1.398,2.169 0,2.169c1.396,0 1.399,-2.169 0,-2.169Z" style="fill:#fff;fill-rule:nonzero;"/><path d="M311.865,412.354c0.14,0.139 0.278,0.279 0.418,0.418c0.989,0.987 2.522,-0.545 1.534,-1.534c-0.139,-0.139 -0.279,-0.279 -0.418,-0.418c-0.989,-0.988 -2.523,0.545 -1.534,1.534Z" style="fill:#fff;fill-rule:nonzero;"/><path d="M284.616,441.443c-1.395,0 -1.398,2.169 0,2.169c1.397,0 1.399,-2.169 0,-2.169Z" style="fill:#fff;fill-rule:nonzero;"/><path d="M329.776,430.99c-1.397,0 -1.398,2.169 0,2.169c1.395,0 1.398,-2.169 0,-2.169Z" style="fill:#fff;fill-rule:nonzero;"/><path d="M340.646,418.865c-1.395,0 -1.398,2.169 0,2.169c1.396,0 1.399,-2.169 0,-2.169Z" style="fill:#fff;fill-rule:nonzero;"/></g></g></g></svg>