<?xml version="1.0" encoding="UTF-8" standalone="no"?><!DOCTYPE svg PUBLIC "-//W3C//DTD SVG 1.1//EN" "http://www.w3.org/Graphics/SVG/1.1/DTD/svg11.dtd"><svg width="100%" height="100%" viewBox="0 0 9744 9744" version="1.1" xmlns="http://www.w3.org/2000/svg" xmlns:xlink="http://www.w3.org/1999/xlink" xml:space="preserve" xmlns:serif="http://www.serif.com/" style="fill-rule:evenodd;clip-rule:evenodd;stroke-linejoin:round;stroke-miterlimit:1.41421;"><g id="Sol"><g><path d="M4890.01,4890.63l110.266,1874.53c-1727.52,1250.67 -661.468,1986.14 -1911.62,2389.54c845.571,-844.508 -257.451,-844.508 698.386,-2757.86l1102.96,-1506.21Z" style="fill:#efc30a;"/><path d="M3346.11,8236.24c-36.358,-368.45 -110.208,-845.743 404.578,-1839.4l73.391,37.536c-477.969,992.425 -441.05,1433.42 -367.817,1801.87l-110.152,0Zm-294.426,918.46c368.32,-403.4 368.32,-623.976 294.426,-918.46l110.152,0c37.033,294.484 73.951,551.418 -330.742,956.053l-73.836,-37.593Zm73.836,37.593l-184.102,72.616l110.266,-110.209l36.976,0l36.86,37.593Zm771.678,-845.901c-110.152,404.908 -183.543,661.683 -771.678,845.901l-36.86,-73.894c551.705,-184.275 624.995,-441.051 698.386,-772.007l110.152,0Zm1139.95,-1543.47c-918.704,661.583 -1028.95,1175.13 -1139.95,1543.47l-110.152,0c110.152,-404.636 258.126,-955.895 1176.26,-1618.89l73.851,75.416Zm0,-37.766l0,37.766l-36.875,-37.766l36.875,0Zm-110.094,-1874.53l110.094,1874.53l-73.851,0l-146.509,-1874.53l110.266,0Z"/><path d="M3713.66,8162.45c-73.29,478.529 -147.084,845.628 -588.135,1029.85l-36.86,-73.894c404.635,-184.275 441.553,-515.074 515.519,-992.31l109.476,36.358Zm588.235,-1838.4c-440.935,771.907 -551.202,1360.82 -588.235,1838.4l-109.476,-36.358c72.544,-441.223 182.867,-1066.39 624.536,-1839.63l73.175,37.593Z"/><path d="M4890.01,4890.63l-147.127,-1912.18c1728.25,-1249.26 662.143,-1985.97 1911.73,-2389.6c-808.768,883.567 258.011,883.567 -697.826,2758.04l-1066.78,1543.74Z" style="fill:#efc30a;"/><path d="M6397.73,1508.72c36.372,367.042 110.266,845.643 -404.578,1874.54l-73.391,-36.373c477.969,-992.526 440.993,-1471.13 367.774,-1801.97l110.195,-36.2Zm293.823,-883.452c-367.717,404.751 -367.717,588.968 -293.823,883.452l-110.195,36.2c-36.99,-330.684 -73.908,-551.259 330.555,-993.488l73.463,73.836Zm-73.463,-73.836l184.39,-36.473l-110.927,110.309l-36.933,-36.415l-36.53,-37.421Zm-772.238,847.036c110.942,-368.449 184.232,-662.991 772.238,-847.036l36.53,73.836c-551.202,184.232 -624.536,442.344 -697.826,809.443l-110.942,-36.243Zm-1139.27,1579.99c918.862,-661.584 1065.99,-1175.29 1139.27,-1579.99l110.942,36.243c-110.942,404.808 -258.126,919.652 -1176.93,1581.28l-73.276,-37.536Zm0,37.536l0,-37.536l36.301,0l-36.301,37.536Zm110.209,1874.64l-110.209,-1874.64l73.276,-37.536l147.199,1912.18l-110.266,0Z"/><path d="M4890.01,4890.63l-1911.62,110.266c-1249.7,-1727.85 -1985.68,-661.742 -2389.59,-1912.18c432.575,414.906 644.23,369.671 973.176,324.507c341.788,-47.031 810.161,-93.89 1784.13,374.727l1543.9,1102.68Z" style="fill:#efc30a;"/><path d="M5999.99,1617.56c73.291,-478.529 147.084,-845.628 588.135,-1029.85l36.861,73.894c-404.636,184.275 -441.554,515.074 -515.52,992.31l-109.476,-36.358Zm-588.235,1838.4c440.936,-771.907 551.202,-1360.82 588.235,-1838.4l109.476,36.358c-72.543,441.223 -182.867,1066.39 -624.536,1839.63l-73.175,-37.593Z"/><path d="M1508.28,3383.26c367.042,-73.966 845.586,-146.567 1874.76,367.027l-73.277,73.966c-993.502,-477.366 -1434.44,-404.693 -1765.11,-366.985l-36.372,-74.008Zm-883.165,-294.542c404.578,368.55 588.178,330.842 883.165,294.542l36.372,74.008c-331.359,36.243 -551.934,72.558 -992.885,-330.842l73.348,-37.708Zm-73.348,37.708l-73.391,-147.974l146.739,110.266l-36.3,0l-37.048,37.708Zm846.261,771.836c-368.335,-110.31 -662.646,-184.218 -846.261,-771.836l73.348,-37.708c184.103,551.317 440.821,625.326 772.913,735.535l0,74.009Zm1543.4,1138.99c-625.168,-918.517 -1140.06,-1028.78 -1543.4,-1138.99l0,-74.009c440.936,110.209 955.838,220.575 1617.29,1176.64l-73.894,36.358Zm36.975,36.315l-36.975,-36.315l36.975,-36.358l0,72.673Zm1911.62,-146.625l-1911.62,146.625l0,-110.267l1874.7,-110.323l36.918,73.965Z"/><path d="M1618.48,3714.05c-515.519,-74.009 -846.247,-146.567 -1066.72,-587.618l73.348,-37.708c184.103,404.793 514.787,478.759 993.374,514.945l0,110.381Zm1801.52,625.11c-772.395,-478.601 -1360.47,-551.202 -1801.52,-625.11l0,-110.381c477.365,74.023 1066.16,184.289 1837.78,661.698l-36.258,73.793Z"/><path d="M4890.01,4890.63l1874.81,-147.86c1250.82,1727.9 1986.26,699.234 2390.16,1912.02c-424.215,-389.265 -635.942,-344.317 -954.272,-299.369c-343.354,48.54 -810.894,97.137 -1802.99,-399.808l-1507.71,-1064.98Z" style="fill:#efc30a;"/><path d="M8236.24,6396.84c-367.832,37.536 -846.361,110.094 -1838.51,-403.457l36.372,-74.009c993.373,515.002 1434.31,440.993 1765.05,404.678l37.09,72.788Zm882.432,295.719c-367.588,-368.507 -588.738,-332.192 -882.432,-295.719l-37.09,-72.788c330.784,-73.779 510.667,-113.462 951.602,290.096l-32.08,78.411Zm73.348,-37.765l73.233,148.132l-146.581,-110.367l36.315,-37.765l37.033,0Zm-845.571,-771.793c367.588,72.616 662.072,146.682 845.571,771.793l-73.348,0c-184.16,-551.318 -441.553,-625.111 -772.223,-699.177l0,-72.616Zm-1543.97,-1176.59c624.995,918.474 1139.9,1066.32 1543.97,1176.59l0,72.616c-441.008,-110.267 -956.57,-256.891 -1617.87,-1175.29l73.894,-73.908Zm-37.651,0l37.651,0l-37.651,36.358l0,-36.358Zm-1911.73,146.567l1911.73,-146.567l0,73.908l-1874.81,146.624l-36.918,-73.965Z"/><path d="M9172.53,6591.72l19.49,63.07l18.671,37.765l-57.671,25.862l-34.348,-25.862l-33.246,-32.614l2.986,-62.007l60.078,-40.416l24.04,34.202Z"/><path d="M9478.05,4844.84l44.638,8.138l0,73.965l-71.148,12.99l-347.607,15.548l-23.269,-28.538l0.028,-73.965l274.284,-30.573l123.074,22.435Z"/><path d="M8162.89,6065.88c477.308,74.124 808.596,110.309 1029.13,588.911l-73.348,37.765c-184.16,-442.286 -514.83,-478.759 -992.813,-552.552l37.033,-74.124Zm-1839.06,-623.875c772.955,440.993 1360.47,551.375 1839.06,623.875l-37.033,74.124c-441.554,-74.124 -1066.72,-146.624 -1838.33,-625.556l36.301,-72.443Z"/><path d="M4890.01,4890.63l-1249.65,1433.42c-999.436,-172.711 -1482.02,18.632 -1830.02,210.032c-394.321,216.826 -615.96,433.653 -1221.53,120.71c1212.56,-37.436 440.878,-771.793 2426.51,-1470.91l1874.7,-293.248Z" style="fill:#efc30a;"/><path d="M1434.38,6176.19c220.303,-293.191 514.844,-661.741 1580.93,-1028.84l36.372,74.138c-1066.1,367.085 -1360.53,734.127 -1543.41,1028.78l-73.894,-74.081Zm-845.571,441.166c551.087,-35.122 661.396,-182.982 845.571,-441.166l73.894,74.081c-184.16,256.661 -331.962,442.286 -919.465,442.286l0,-75.201Zm-37.048,75.201l-147.242,-75.201l184.29,0l0,37.436l-37.048,37.765Zm1176.93,-37.765c-330.67,184.332 -588.796,330.956 -1176.93,37.765l37.048,-75.201c551.087,258.184 771.72,147.802 1065.87,-35.122l74.009,72.558Zm1911.67,-294.427c-1103.02,-184.175 -1580.83,74.009 -1911.67,294.427l-74.009,-72.558c367.142,-221.869 845.801,-516.353 1985.68,-331.963l0,110.094Zm36.358,-36.315l-36.358,36.315l0,-36.315l36.358,0Zm1213.29,-1433.42l-1213.29,1433.42l-72.544,-37.593l1248.91,-1433.48l36.918,37.651Z"/><path d="M1728.69,6360.36c-404.578,294.427 -662.762,515.175 -1139.88,332.192l0,-75.201c440.878,147.802 697.711,-35.122 1102.35,-330.899l37.536,73.908Zm1727.57,-845.916c-881.771,220.748 -1360.42,589.025 -1727.57,845.916l-37.536,-73.908c368.378,-256.776 846.189,-624.033 1728.85,-844.451l36.258,72.443Z"/><path d="M4890.01,4890.63l1213.4,-1433.36c987.886,153.075 1470.85,-40.739 1818.03,-234.61c402.222,-224.742 622.022,-449.354 1233.54,-133.94c-1212.61,37.708 -440.95,809.544 -2426.4,1471.18l-1838.57,330.728Z" style="fill:#efc30a;"/><path d="M8309.46,3567.48c-220.461,293.076 -514.27,661.584 -1580.88,1028.55l-37.033,-73.837c1066.61,-330.799 1361.09,-734.242 1544.69,-992.368l73.219,37.651Zm845.528,-404.808c-551.145,0 -661.353,184.218 -845.528,404.808l-73.219,-37.651c220.36,-256.775 330.612,-441.108 918.747,-477.365l0,110.208Zm37.033,-110.208l147.185,73.965l-184.218,36.243l0,-73.951l37.033,-36.257Zm-1176.37,73.965c367.717,-220.532 588.192,-330.856 1176.37,-73.965l-37.033,73.965c-551.145,-258.183 -771.62,-110.438 -1065.99,72.501l-73.348,-72.501Zm-1912.24,293.134c1103.53,184.103 1580.89,-110.266 1912.24,-293.134l73.348,72.501c-367.099,220.633 -845.628,478.759 -1985.58,294.584l0,-73.951Zm-36.415,0l36.415,0l0,37.708l-36.415,-37.708Zm-1213.91,1433.42l1213.91,-1433.42l73.29,73.951l-1250.28,1397.12l-36.918,-37.651Z"/><path d="M8015.65,3383.26c404.075,-294.542 698.387,-477.366 1139.34,-330.799l0,73.965c-440.95,-147.974 -698.387,72.501 -1102.35,330.842l-36.99,-74.008Zm-1728.12,845.801c881.987,-184.233 1360.47,-551.375 1728.12,-845.801l36.99,74.008c-368.335,293.019 -845.7,661.469 -1728.81,881.886l-36.301,-110.093Z"/><path d="M4890.01,4890.63l-1433.75,-1250.6c330.784,-2131.32 -955.78,-1910.84 -367.602,-3051.18c36.86,1214.31 808.538,442.459 1470.68,2427.14l330.67,1874.64Z" style="fill:#efc30a;"/><path d="M3566.57,1434.71c294.384,220.59 662.144,515.074 1029.75,1581.28l-73.894,36.473c-367.042,-1066.32 -735.377,-1323.27 -992.21,-1543.74l36.358,-74.009Zm-441.051,-845.858c37.034,552.725 184.232,662.991 441.051,845.858l-36.358,74.009c-257.451,-184.332 -441.553,-330.842 -478.529,-919.867l73.836,0Zm-73.836,0l73.836,-147.802l0,147.802l-73.836,0Zm73.836,1140.34c-220.403,-330.727 -367.544,-587.617 -73.836,-1140.34l73.836,36.415c-257.45,516.31 -110.208,736.828 73.966,1067.68l-73.966,36.243Zm294.484,1910.84c146.567,-1102.69 -110.252,-1580 -294.484,-1910.84l73.966,-36.243c183.543,367.085 477.237,808.093 293.809,1947.09l-73.291,0Zm0,37.651l0,-37.651l36.258,0l-36.258,37.651Zm1433.09,1249.26l-1433.09,-1249.26l73.291,-74.023l1396.72,1249.32l-36.918,73.965Z"/><path d="M4890.01,4890.63l1397.52,1212.84c-330.741,2132.77 955.838,1912.35 367.085,3051.23c-36.53,-1176.64 -808.768,-403.4 -1470.12,-2427.19l-294.484,-1836.88Z" style="fill:#efc30a;"/><path d="M6177.27,8310.19c-294.484,-184.103 -662.029,-478.645 -1029.75,-1582.69l73.851,0c366.984,1030.02 735.42,1324.62 992.253,1544.92l-36.358,37.766Zm440.821,844.508c-36.861,-513.724 -183.988,-661.569 -440.821,-844.508l36.358,-37.766c257.508,184.447 440.993,294.541 477.926,882.274l-73.463,0Zm73.463,37.593l-73.463,146.682l0,-184.275l36.53,0l36.933,37.593Zm-73.463,-1140.17c220.647,330.741 368.449,588.853 73.463,1140.17l-73.463,-37.593c256.948,-513.724 110.496,-771.836 -73.779,-1066.26l73.779,-36.315Zm-294.254,-1912.12c-146.567,1103.93 110.266,1544.86 294.254,1912.12l-73.779,36.315c-183.557,-367.272 -477.308,-844.508 -293.766,-1984.97l73.291,36.531Zm0,-74.124l36.918,37.593l-36.918,36.531l-36.301,-36.531l36.301,-37.593Zm-1433.82,-1212.9l1433.82,1212.9l-36.301,74.124l-1434.44,-1213.06l36.918,-73.965Z"/><path d="M6360.75,8015.82c293.866,404.577 477.983,697.941 330.799,1176.47l-73.463,-37.593c146.739,-440.936 -36.861,-697.827 -330.555,-1066.26l73.219,-72.615Zm-845.514,-1729.37c221.079,883.394 551.763,1360.88 845.514,1729.37l-73.219,72.615c-294.383,-403.572 -662.086,-882.116 -845.643,-1764.39l73.348,-37.593Z"/><path d="M3385.74,1765.32c-293.866,-404.578 -477.983,-697.942 -330.799,-1176.47l73.463,37.593c-146.739,440.936 36.861,697.827 330.555,1066.26l-73.219,72.616Zm845.514,1729.37c-221.079,-883.394 -551.763,-1360.88 -845.514,-1729.37l73.219,-72.616c294.383,403.572 662.086,882.116 845.643,1764.39l-73.348,37.593Z"/><path d="M4890.01,4890.63l808.653,0l-808.653,4632.58l-844.839,-4632.58l844.839,0l0,4632.58l0,-4632.58Z" style="fill:#efc30a;"/><path d="M4927.06,9523.21l-110.266,0l0,-4632.58l110.266,0l0,4632.58Zm-37.047,-4670.23l37.047,0l0,37.651l-37.047,0l0,-37.651Zm-844.839,0l844.839,0l0,73.965l-844.839,0l0,-73.965Zm-74.009,0l74.009,0l0,37.651l-74.009,0l0,-37.651Zm845.629,4670.23l-845.629,-4632.58l110.195,0l845.7,4632.58l-110.266,0Zm110.266,0l-37.047,220.346l-73.219,-220.346l110.266,0Zm845.514,-4632.58l-845.514,4632.58l-110.266,0l845.571,-4632.58l110.209,0Zm-73.908,-37.651l73.908,0l0,37.651l-73.908,0l0,-37.651Zm-808.653,0l808.653,0l0,73.965l-808.653,0l0,-73.965Z"/><path d="M4890.01,4890.63l-844.839,0l844.839,-4670.16l808.653,4670.16l-808.653,0l0,-4670.16l0,4670.16Z" style="fill:#efc30a;"/><path d="M4816.8,220.475l110.266,0l0,4670.16l-110.266,0l0,-4670.16Zm73.219,4706.47l-73.219,0l0,-36.314l73.219,0l0,36.314Zm808.653,0l-808.653,0l0,-73.965l808.653,0l0,73.965Zm73.908,0l-73.908,0l0,-36.314l73.908,0l0,36.314Zm-845.514,-4706.47l845.514,4670.16l-110.209,0l-845.571,-4632.51l110.266,-37.651Zm-110.266,0l73.219,-220.475l37.047,220.475l-110.266,0Zm-845.629,4670.16l845.629,-4670.16l110.266,37.651l-845.7,4632.51l-110.195,0Zm74.009,36.314l-74.009,0l0,-36.314l74.009,0l0,36.314Zm844.839,0l-844.839,0l0,-73.965l844.839,0l0,73.965Z"/><path d="M4890.01,4890.63l0,844.565l-4669.6,-844.565l4669.6,-845.802l0,845.802l-4669.6,0l4669.6,0Z" style="fill:#efc30a;"/><path d="M4890.01,4926.95l-4669.6,0l0,-73.965l4669.6,0l0,73.965Zm37.047,0l-37.047,0l0,-36.314l37.047,0l0,36.314Zm0,-36.314l-110.266,0l0,-845.802l110.266,0l0,845.802Zm-73.965,-882.159l73.965,-37.479l0,73.836l-37.047,0l-36.918,-36.357Zm-4632.68,844.508l4632.68,-844.508l36.918,72.672l-4632,845.801l-37.593,-73.965Zm0,73.965l-220.418,-36.314l220.418,-37.651l0,73.965Zm4632.68,845.787l-4632.68,-845.787l37.593,-73.965l4632,845.743l-36.918,74.009Zm73.965,-37.536l0,37.536l-73.965,0l36.918,-37.536l37.047,0Zm0,0l-110.266,0l0,-844.565l110.266,0l0,844.565Z"/><path d="M4890.01,4890.63l0,-845.802l4632.68,845.802l-4632.68,844.565l0,-844.565l4632.68,0l-4632.68,0Z" style="fill:#efc30a;"/><path d="M4890.01,4852.98l4632.68,0l0,73.965l-4632.68,0l0,-73.965Zm-73.219,0l73.219,0l0,37.651l-73.219,0l0,-37.651Zm0,37.651l110.266,0l0,844.565l-110.266,0l0,-844.565Zm73.219,882.101l-73.219,0l0,-37.536l73.219,0l0,37.536Zm4632.68,-845.787l-4632.68,845.787l-36.918,-74.009l4632.73,-845.743l36.861,73.965Zm0,-73.965l221.093,37.651l-221.093,36.314l0,-73.965Zm-4632.68,-844.508l4632.68,844.508l-36.861,73.965l-4632.73,-845.801l36.918,-72.672Zm-73.219,36.357l0,-73.836l73.219,37.479l0,36.357l-73.219,0Zm0,0l110.266,0l0,845.802l-110.266,0l0,-845.802Z"/><path d="M4890.01,4890.63l588.192,587.789l-3897.32,2684.03l2684.76,-3897.09l624.364,625.269l-3309.12,3271.82l3309.12,-3271.82Z" style="fill:#efc30a;"/><path d="M4890.01,4926.95l-3271.53,3271.75l-37.594,-72.601l3272.21,-3273.11l36.918,73.965Zm0,-73.965l37.047,37.651l-37.047,36.314l0,-73.965Zm-588.121,-587.618l588.121,587.618l-36.918,73.965l-624.378,-625.34l73.175,-36.243Zm-73.175,0l36.932,-36.3l36.243,36.3l-73.175,0Zm-2684.07,3860.73l2684.07,-3860.73l73.175,36.243l-2683.41,3897.09l-73.837,-72.601Zm73.837,72.601l-184.103,147.702l110.266,-220.303l36.243,36.358l37.594,36.243Zm3859.72,-2684.24l-3859.72,2684.24l-37.594,-72.601l3861,-2684.09l36.315,72.443Zm37.033,-72.443l36.976,36.415l-74.009,36.028l0,-36.028l37.033,-36.415Zm-625.225,-589.025l625.225,589.025l-73.348,72.443l-588.795,-587.503l36.918,-73.965Z"/><path d="M4890.01,4890.63l-624.364,-625.269l3897.24,-2682.79l-2684.69,3895.85l-588.192,-587.789l3272.88,-3308.06l-3272.88,3308.06Z" style="fill:#efc30a;"/><path d="M4853.1,4852.98l3272.76,-3270.41l73.291,36.2l-3309.14,3308.18l-36.918,-73.965Zm0,73.965l-36.301,-36.314l36.301,-37.651l36.918,37.651l-36.918,36.314Zm588.795,587.503l-588.795,-587.503l36.918,-73.965l625.225,589.025l-73.348,72.443Zm73.348,0l-37.033,37.938l-36.315,-37.938l36.315,-36.028l37.033,36.028Zm2683.91,-3895.68l-2683.91,3895.68l-73.348,-72.443l2683.97,-3859.43l73.291,36.2Zm-73.291,-73.851l183.6,-110.209l-110.309,184.06l-36.258,-36.2l-37.033,-37.651Zm-3860.21,2720.44l3860.21,-2720.44l37.033,73.851l-3861,2682.84l-36.243,-36.243Zm-36.932,36.243l0,-36.243l36.932,0l-36.932,36.243Zm624.378,625.34l-624.378,-625.34l73.175,-36.243l588.121,587.618l-36.918,73.965Z"/><path d="M4890.01,4890.63l-624.364,587.789l-2684.76,-3895.85l3897.32,2682.79l-588.192,625.269l-3309.12,-3308.06l3309.12,3308.06Z" style="fill:#efc30a;"/><path d="M4853.1,4926.95l-3272.21,-3308.18l37.594,-36.2l3271.53,3270.41l-36.918,73.965Zm36.918,0l-36.918,0l36.918,-36.314l0,36.314Zm625.225,-625.34l-625.225,625.34l-36.918,-73.965l588.795,-587.618l73.348,36.243Zm-37.033,-36.243l74.009,0l-36.976,36.243l-37.033,-36.243Zm-3859.72,-2720.44l3859.72,2720.44l-36.315,36.243l-3861,-2682.84l37.594,-73.851Zm-73.837,73.851l-110.266,-184.06l184.103,110.209l-37.594,37.651l-36.243,36.2Zm2684.07,3895.68l-2684.07,-3895.68l73.837,-36.2l2683.41,3859.43l-73.175,72.443Zm73.175,0l-36.243,37.938l-36.932,-37.938l36.932,-36.028l36.243,36.028Zm588.121,-587.503l-588.121,587.503l-73.175,-72.443l624.378,-589.025l36.918,73.965Z"/><path d="M4890.01,4890.63l588.192,-625.269l2684.69,3897.09l-3897.24,-2684.03l624.364,-587.789l3272.88,3271.82l-3272.88,-3271.82Z" style="fill:#efc30a;"/><path d="M4890.01,4852.98l3309.14,3273.11l-73.291,72.601l-3272.76,-3271.75l36.918,-73.965Zm-36.918,0l36.918,-36.186l0,73.837l-36.918,-37.651Zm-624.378,589.025l624.378,-589.025l36.918,73.965l-588.121,587.503l-73.175,-72.443Zm36.932,72.443l-36.932,-36.028l0,-36.415l36.932,36.415l0,36.028Zm3860.21,2684.24l-3860.21,-2684.24l36.243,-72.443l3861,2684.09l-37.033,72.601Zm73.291,-72.601l110.309,220.303l-183.6,-147.702l37.033,-36.243l36.258,-36.358Zm-2683.91,-3860.73l2683.91,3860.73l-73.291,72.601l-2683.97,-3897.09l73.348,-36.243Zm-73.348,0l36.315,-36.3l37.033,36.3l-73.348,0Zm-588.795,587.618l588.795,-587.618l73.348,36.243l-625.225,625.34l-36.918,-73.965Z"/><path d="M6434.1,4890.63c0,-882.159 -698.401,-1543.74 -1544.09,-1543.74c-881.814,0 -1580.26,661.584 -1580.26,1543.74c0,844.565 698.445,1543.74 1580.26,1543.74c845.686,0 1544.09,-699.177 1544.09,-1543.74Z" style="fill:#efc30a;"/><path d="M5919.76,5955.61c293.866,-293.191 440.993,-661.411 440.993,-1064.98l110.381,0c0,441.108 -183.6,808.092 -477.983,1102.75l-73.391,-37.766Zm-1029.75,441.223c404.635,0 772.352,-183.04 1029.75,-441.223l73.391,37.766c-294.484,293.076 -698.502,477.293 -1103.14,477.293l0,-73.836Zm-1065.93,-441.223c257.279,258.183 624.939,441.223 1065.93,441.223l0,73.836c-440.993,0 -844.839,-184.217 -1139.32,-477.293l73.391,-37.766Zm-441.05,-1064.98c0,403.572 147.184,771.792 441.05,1064.98l-73.391,37.766c-294.426,-294.657 -477.926,-661.641 -477.926,-1102.75l110.267,0Zm441.05,-1066.38c-293.866,256.89 -441.05,625.153 -441.05,1066.38l-110.267,0c0,-441.224 183.5,-845.802 477.926,-1140.34l73.391,73.966Zm1065.93,-440.993c-440.993,0 -808.653,146.566 -1065.93,440.993l-73.391,-73.966c294.484,-293.019 698.33,-477.236 1139.32,-477.236l0,110.209Zm1029.75,440.993c-257.394,-294.427 -625.111,-440.993 -1029.75,-440.993l0,-110.209c404.635,0 808.653,184.217 1103.14,477.236l-73.391,73.966Zm440.993,1066.38c0,-441.224 -147.127,-809.487 -440.993,-1066.38l73.391,-73.966c294.383,294.541 477.983,699.119 477.983,1140.34l-110.381,0Z"/><path d="M5993.15,4265.36c-73.391,110.324 -147.3,-73.966 -477.912,-73.966c-367.717,0 -404.075,184.29 -478.084,147.759c-36.875,-37.55 294.585,-294.326 404.736,-294.326c110.324,-36.357 440.893,73.909 551.26,220.533Z"/><path d="M5588.36,4375.69c110.31,110.252 37.091,294.484 -73.118,294.484c-110.209,0 -293.866,-184.232 -183.499,-294.484l256.617,0Z"/><path d="M5147.52,4522.2c0,-183.04 147.127,-220.59 367.717,-220.59c220.461,0 330.612,184.333 404.521,220.59c-73.909,0 -184.06,-146.509 -404.521,-146.509c-220.59,0 -220.59,0 -367.717,146.509Z"/><path d="M5184.5,4559.9c36.875,-73.965 110.151,72.659 293.708,72.659c147.242,0 220.461,-36.53 330.727,-110.367c73.851,-72.788 -146.567,184.218 -293.694,184.218c-147.242,0 -367.717,-110.381 -330.741,-146.51Z"/><path d="M5662.37,4632.56c183.485,-72.659 73.334,-220.576 0,-256.876c36.301,36.3 146.567,184.217 0,256.876Z"/><path d="M4890.01,5478.42c73.29,0 110.266,-36.415 221.15,-36.415c110.209,0 367.042,182.882 514.284,110.381c-330.799,146.337 -183.557,36.186 -735.434,36.186l-73.219,0l73.219,-110.152Z"/><path d="M5698.67,5698.72c-73.219,-110.151 -36.301,-73.836 -183.428,-256.718c147.127,110.381 147.127,146.567 183.428,256.718Z"/><path d="M4890.01,5809.05c331.359,0 294.484,-73.851 735.434,-256.661c-330.799,36.186 -404.075,146.337 -735.434,146.337l-73.219,0l73.219,110.324Z"/><path d="M4890.01,5294.2c73.29,0 110.266,-72.716 221.15,-72.716c110.209,0 256.833,36.185 330.727,110.252c36.315,0 -36.861,-110.252 -147.242,-110.252c-110.151,-37.608 -73.276,-220.59 -183.485,-258.184c0,73.952 36.358,73.952 36.358,147.803c0,72.773 -110.367,72.773 -147.242,0c36.875,110.381 -73.219,110.381 -110.266,110.381l0,72.716Z"/><path d="M3750.69,4265.36c73.391,110.324 146.51,-73.966 478.027,-73.966c367.602,0 403.859,184.29 477.868,147.759c36.301,-37.55 -294.484,-294.326 -404.693,-294.326c-110.266,-36.357 -440.935,73.909 -551.202,220.533Z"/><path d="M9494.99,4878.88l23.624,4.296l-5.058,25.434l-21.191,-8.253l2.625,-21.477Z"/><path d="M4155.38,4375.69c-110.209,110.252 -36.933,294.484 73.334,294.484c110.094,0 293.708,-184.232 183.384,-294.484l-256.718,0Z"/><path d="M4596.32,4522.2c0,-183.04 -147.299,-220.59 -367.602,-220.59c-220.518,0 -331.517,184.333 -404.636,220.59c110.152,0 184.118,-146.509 404.636,-146.509c220.303,0 220.303,0 367.602,146.509Z"/><path d="M4559.34,4559.9c-36.918,-73.965 -110.323,72.659 -293.694,72.659c-147.199,0 -220.475,-36.53 -331.416,-110.367c-73.276,-72.788 147.127,184.218 294.484,184.218c183.384,0 367.602,-110.381 330.626,-146.51Z"/><path d="M4081.36,4632.56c-184.16,-72.659 -73.161,-220.576 0,-256.876c-36.186,36.3 -146.567,184.217 0,256.876Z"/><path d="M4890.01,5478.42c-110.152,0 -147.127,-36.415 -257.437,-36.415c-110.151,0 -366.927,182.882 -514.126,110.381c330.57,146.337 183.442,36.186 771.563,36.186l37.047,0l-37.047,-110.152Z"/><path d="M4045.18,5698.72c73.276,-110.151 73.276,-73.836 183.543,-256.718c-110.267,110.381 -147.357,146.567 -183.543,256.718Z"/><path d="M4890.01,5809.05c-367.588,0 -293.694,-73.851 -771.563,-256.661c330.57,36.186 403.975,146.337 771.563,146.337l37.047,0l-37.047,110.324Z"/><path d="M4890.01,5294.2c-110.152,0 -147.127,-72.716 -257.437,-72.716c-110.151,0 -256.732,36.185 -330.684,110.252c-36.243,0 36.919,-110.252 147.128,-110.252c110.323,-37.608 73.405,-220.59 183.556,-258.184c0,73.952 -36.257,73.952 -36.257,147.803c0,72.773 110.266,72.773 146.567,0c-36.301,110.381 73.908,110.381 147.127,110.381l0,72.716Z"/><path d="M4890.01,5955.61c-73.219,0 -257.437,37.766 0,37.766c221.15,0 37.047,-37.766 0,-37.766Z"/><path d="M9080.7,4852.98l-0.028,73.965l69.487,68.014l318.841,-58.21l-22.246,-97.613l-352.432,-64.246l-13.622,78.09Z"/><path d="M9179.63,3157.82l-24.637,4.847l-53.972,0.616l-186.386,-163.728l217.497,38.839l59.894,14.065l22.444,47.3l-34.84,58.061"/><path d="M8241.9,1547.44l-42.752,71.335l-37.532,54.476l-253.465,285.029l-32.082,-16.52l46.347,-155.89l4.699,-69.384l198.742,-171.562l47.929,-5.839l68.114,8.355Z"/><path d="M6506.89,681.173l54.203,31.553l130.458,-87.458l22.675,-22.549l-40.953,-62.203l-55.185,10.916l-105.543,62.255l-5.655,67.486Z"/></g><path d="M5037.15,8918.55l-110.094,0.553l-110.266,0.092l-109.587,3.671l109.587,600.346l73.219,220.346l37.047,-220.346l110.094,-604.662Zm1580.93,236.155l0,37.593l65.974,14.952l7.489,-14.952l3.863,-12.774l-16.029,-161.213l-61.297,136.394Zm-3511.75,45.16l19.184,-7.567l18.489,-5.869l3.209,-55.653l-38.815,-40.129l-22.993,29.024l-33.726,35.034l-6.72,6.716l61.372,38.444Zm5027.85,-1167.21l64.96,93.442l63.58,126.979l-110.858,-33.451l-26.013,-20.927l-44.107,-30.671l-208.564,-180.986l-94.048,-77.009l23.755,-34.197l5.283,-136.453l97.965,-34.766l228.047,328.039Zm-6433.25,108.697l-82.458,57.346l-1.164,0.933l-34.163,-23.397l-44.082,-39.003l5.572,-11.134l55.935,-80.456l174.237,-250.62l87.474,49.595l80.032,30.219l64.927,53.494l-306.31,213.023Zm-1150.07,-1523.99l37.936,0l116.218,72.553l-89.829,33.169l-63.437,-30.521l-1.703,-0.869l0.093,-5.759l0.722,-68.573Zm-224.029,-1783.78l-152.483,27.268l25.381,62.692l444.76,80.831l18.607,-77.425l-0.028,-73.965l-336.237,-19.401Zm251.963,-1779.65c0,0 53.687,36.306 97.007,79.866c43.319,43.561 -36.047,53.162 -36.047,53.162l-88.006,-60.527l-1.6,-59.162l28.646,-13.339Zm1011.57,-1525.83l28.11,16.827l20.451,14.415l184.015,227.633l-30.788,45.397l-74.916,36.918l-172.599,-250.512l-28.081,-46.874l73.808,-43.804Zm3450.72,-677.747l-114.036,11.88l-110.266,-0.093l-103.852,-68.111l103.852,-573.547l55.097,-64.585l49.309,29.71l5.86,34.875l114.036,629.871Zm-1954.44,-331.498l-34.972,70.005l-12.462,23.785l28.04,140.979l72.717,-11.352l-13.084,-117.381l-14.156,-51.333l-26.083,-54.703Z"/></g></svg>